<?xml version="1.0" encoding="UTF-8" standalone="no"?>
<svg
   xmlns:dc="http://purl.org/dc/elements/1.1/"
   xmlns:cc="http://creativecommons.org/ns#"
   xmlns:rdf="http://www.w3.org/1999/02/22-rdf-syntax-ns#"
   xmlns:svg="http://www.w3.org/2000/svg"
   xmlns="http://www.w3.org/2000/svg"
   viewBox="0 0 880 880"
   height="880"
   width="880"
   xml:space="preserve"
   id="svg2"
   version="1.1"><metadata
     id="metadata8"><rdf:RDF><cc:Work
         rdf:about=""><dc:format>image/svg+xml</dc:format><dc:type
           rdf:resource="http://purl.org/dc/dcmitype/StillImage" /></cc:Work></rdf:RDF></metadata><defs
     id="defs6"><clipPath
       id="clipPath18"
       clipPathUnits="userSpaceOnUse"><path
         id="path16"
         d="M 0,660 H 660 V 0 H 0 Z" /></clipPath></defs><g
     transform="matrix(1.3333333,0,0,-1.3333333,0,880)"
     id="g10"><g
       id="g12"><g
         clip-path="url(#clipPath18)"
         id="g14"><path
           id="path20"
           style="fill:#2f2825;fill-opacity:1;fill-rule:nonzero;stroke:none"
           d="m 240.821,19.757 c 0,0.655 -0.094,1.22 -0.289,1.684 -0.188,0.471 -0.454,0.831 -0.796,1.087 -0.34,0.249 -0.713,0.376 -1.127,0.376 -0.654,0 -1.207,-0.275 -1.658,-0.809 -0.45,-0.544 -0.676,-1.333 -0.676,-2.382 0,-0.987 0.226,-1.754 0.67,-2.297 0.45,-0.549 1.005,-0.827 1.664,-0.827 0.395,0 0.762,0.12 1.1,0.363 0.332,0.238 0.604,0.596 0.807,1.071 0.205,0.482 0.305,1.058 0.305,1.734 m -4.655,3.61 v -0.298 c 0.445,0.574 0.908,1 1.39,1.266 0.481,0.27 1.03,0.407 1.639,0.407 0.73,0 1.403,-0.199 2.018,-0.593 0.614,-0.392 1.1,-0.964 1.457,-1.723 0.357,-0.759 0.534,-1.653 0.534,-2.689 0,-0.761 -0.1,-1.468 -0.308,-2.099 -0.205,-0.641 -0.487,-1.179 -0.847,-1.612 -0.361,-0.432 -0.787,-0.767 -1.275,-0.997 -0.492,-0.236 -1.019,-0.351 -1.579,-0.351 -0.681,0 -1.252,0.14 -1.713,0.426 -0.464,0.284 -0.9,0.699 -1.316,1.251 v -3.718 c 0,-1.093 -0.381,-1.635 -1.141,-1.635 -0.446,0 -0.744,0.138 -0.884,0.419 -0.147,0.282 -0.218,0.692 -0.218,1.231 v 10.7 c 0,0.471 0.095,0.826 0.294,1.057 0.199,0.232 0.469,0.352 0.808,0.352 0.337,0 0.612,-0.12 0.823,-0.362 0.211,-0.242 0.318,-0.586 0.318,-1.032" /><path
           id="path22"
           style="fill:#2f2825;fill-opacity:1;fill-rule:nonzero;stroke:none"
           d="m 251.284,16.079 v 0.314 c -0.287,-0.375 -0.585,-0.688 -0.899,-0.94 -0.314,-0.26 -0.656,-0.447 -1.026,-0.57 -0.373,-0.122 -0.796,-0.185 -1.271,-0.185 -0.572,0 -1.088,0.125 -1.543,0.37 -0.457,0.248 -0.809,0.591 -1.057,1.026 -0.298,0.528 -0.444,1.285 -0.444,2.267 v 4.914 c 0,0.493 0.107,0.866 0.323,1.109 0.214,0.245 0.497,0.37 0.851,0.37 0.36,0 0.649,-0.125 0.871,-0.375 0.22,-0.248 0.329,-0.618 0.329,-1.104 v -3.97 c 0,-0.573 0.047,-1.055 0.136,-1.443 0.096,-0.393 0.262,-0.699 0.507,-0.922 0.236,-0.219 0.563,-0.328 0.974,-0.328 0.404,0 0.781,0.125 1.131,0.372 0.357,0.246 0.616,0.57 0.777,0.968 0.135,0.354 0.2,1.12 0.2,2.308 v 3.015 c 0,0.486 0.11,0.856 0.332,1.104 0.218,0.25 0.504,0.375 0.858,0.375 0.355,0 0.639,-0.125 0.853,-0.37 0.213,-0.243 0.319,-0.616 0.319,-1.109 v -7.181 c 0,-0.472 -0.1,-0.827 -0.308,-1.061 -0.203,-0.238 -0.468,-0.353 -0.794,-0.353 -0.323,0 -0.59,0.125 -0.803,0.365 -0.211,0.248 -0.316,0.588 -0.316,1.034" /><path
           id="path24"
           style="fill:#2f2825;fill-opacity:1;fill-rule:nonzero;stroke:none"
           d="m 258.172,19.658 c 0,-0.986 0.215,-1.741 0.645,-2.273 0.433,-0.528 1,-0.796 1.704,-0.796 0.598,0 1.11,0.273 1.545,0.814 0.434,0.542 0.649,1.315 0.649,2.326 0,0.661 -0.09,1.222 -0.27,1.692 -0.181,0.475 -0.438,0.839 -0.765,1.095 -0.335,0.256 -0.717,0.388 -1.159,0.388 -0.457,0 -0.854,-0.132 -1.209,-0.388 -0.356,-0.256 -0.632,-0.63 -0.837,-1.118 -0.203,-0.483 -0.303,-1.062 -0.303,-1.74 m -0.113,7.368 v -3.788 c 0.441,0.489 0.9,0.856 1.363,1.118 0.465,0.256 1.041,0.386 1.724,0.386 0.789,0 1.479,-0.199 2.075,-0.585 0.593,-0.396 1.057,-0.959 1.383,-1.699 0.33,-0.742 0.492,-1.62 0.492,-2.638 0,-0.753 -0.09,-1.44 -0.271,-2.069 -0.184,-0.625 -0.448,-1.166 -0.796,-1.63 -0.351,-0.458 -0.773,-0.809 -1.267,-1.069 -0.498,-0.247 -1.045,-0.374 -1.641,-0.374 -0.364,0 -0.709,0.046 -1.033,0.136 -0.322,0.09 -0.598,0.208 -0.82,0.361 -0.229,0.141 -0.42,0.299 -0.58,0.453 -0.161,0.16 -0.368,0.393 -0.629,0.709 v -0.243 c 0,-0.468 -0.11,-0.82 -0.325,-1.061 -0.213,-0.238 -0.488,-0.355 -0.815,-0.355 -0.339,0 -0.605,0.117 -0.807,0.355 -0.199,0.246 -0.299,0.595 -0.299,1.061 v 10.824 c 0,0.499 0.097,0.879 0.292,1.136 0.194,0.259 0.463,0.386 0.814,0.386 0.362,0 0.645,-0.123 0.841,-0.37 0.199,-0.243 0.299,-0.59 0.299,-1.044" /><path
           id="path26"
           style="fill:#2f2825;fill-opacity:1;fill-rule:nonzero;stroke:none"
           d="m 266.771,16.187 v 10.747 c 0,0.498 0.107,0.871 0.317,1.127 0.214,0.252 0.498,0.379 0.858,0.379 0.36,0 0.649,-0.125 0.87,-0.377 0.217,-0.25 0.33,-0.629 0.33,-1.129 V 16.187 c 0,-0.503 -0.114,-0.882 -0.335,-1.135 -0.222,-0.247 -0.512,-0.374 -0.865,-0.374 -0.348,0 -0.628,0.13 -0.846,0.39 -0.219,0.262 -0.329,0.632 -0.329,1.119" /><path
           id="path28"
           style="fill:#2f2825;fill-opacity:1;fill-rule:nonzero;stroke:none"
           d="m 273.974,23.345 v -7.158 c 0,-0.5 -0.117,-0.875 -0.337,-1.129 -0.229,-0.25 -0.518,-0.38 -0.863,-0.38 -0.348,0 -0.631,0.13 -0.848,0.388 -0.217,0.264 -0.326,0.634 -0.326,1.121 v 7.088 c 0,0.486 0.109,0.856 0.326,1.104 0.217,0.25 0.5,0.375 0.848,0.375 0.345,0 0.634,-0.125 0.863,-0.375 0.22,-0.248 0.337,-0.592 0.337,-1.034 m -1.176,2.563 c -0.329,0 -0.61,0.105 -0.85,0.322 -0.229,0.21 -0.348,0.514 -0.348,0.901 0,0.349 0.119,0.636 0.361,0.867 0.238,0.228 0.518,0.335 0.837,0.335 0.307,0 0.582,-0.101 0.819,-0.305 0.237,-0.205 0.357,-0.508 0.357,-0.897 0,-0.384 -0.119,-0.681 -0.349,-0.894 -0.232,-0.216 -0.506,-0.329 -0.827,-0.329" /><path
           id="path30"
           style="fill:#2f2825;fill-opacity:1;fill-rule:nonzero;stroke:none"
           d="m 284.934,17.746 c 0,-0.308 -0.088,-0.639 -0.264,-0.988 -0.18,-0.352 -0.449,-0.685 -0.813,-1.002 -0.361,-0.318 -0.818,-0.574 -1.367,-0.766 -0.551,-0.197 -1.174,-0.292 -1.861,-0.292 -1.469,0 -2.613,0.447 -3.438,1.338 -0.822,0.894 -1.234,2.087 -1.234,3.589 0,1.016 0.188,1.918 0.563,2.696 0.376,0.778 0.925,1.385 1.636,1.81 0.711,0.429 1.567,0.641 2.555,0.641 0.617,0 1.184,-0.095 1.695,-0.28 0.514,-0.189 0.949,-0.432 1.303,-0.726 0.357,-0.297 0.629,-0.614 0.82,-0.95 0.192,-0.335 0.282,-0.648 0.282,-0.939 0,-0.293 -0.108,-0.543 -0.317,-0.752 -0.213,-0.206 -0.467,-0.31 -0.769,-0.31 -0.2,0 -0.362,0.058 -0.495,0.164 -0.126,0.102 -0.275,0.269 -0.437,0.509 -0.291,0.458 -0.594,0.806 -0.91,1.04 -0.317,0.229 -0.719,0.347 -1.201,0.347 -0.705,0 -1.272,-0.29 -1.7,-0.861 -0.429,-0.576 -0.642,-1.357 -0.642,-2.35 0,-0.465 0.056,-0.897 0.166,-1.286 0.109,-0.392 0.269,-0.722 0.476,-0.999 0.209,-0.276 0.459,-0.484 0.758,-0.625 0.295,-0.145 0.621,-0.216 0.971,-0.216 0.48,0 0.885,0.113 1.225,0.345 0.339,0.232 0.64,0.583 0.898,1.051 0.148,0.284 0.305,0.5 0.473,0.66 0.17,0.157 0.375,0.231 0.617,0.231 0.291,0 0.531,-0.111 0.724,-0.341 0.188,-0.234 0.286,-0.477 0.286,-0.738" /><path
           id="path32"
           style="fill:#2f2825;fill-opacity:1;fill-rule:nonzero;stroke:none"
           d="m 288.846,19.729 c 0,-0.67 0.099,-1.24 0.299,-1.714 0.201,-0.473 0.47,-0.825 0.818,-1.063 0.351,-0.243 0.73,-0.363 1.139,-0.363 0.419,0 0.8,0.116 1.144,0.341 0.346,0.228 0.619,0.577 0.828,1.046 0.205,0.467 0.307,1.054 0.307,1.753 0,0.665 -0.102,1.229 -0.307,1.706 -0.209,0.477 -0.484,0.837 -0.836,1.093 -0.351,0.249 -0.734,0.376 -1.15,0.376 -0.434,0 -0.822,-0.132 -1.166,-0.388 -0.34,-0.256 -0.608,-0.627 -0.795,-1.109 -0.188,-0.483 -0.281,-1.036 -0.281,-1.678 m 4.666,-3.635 v 0.243 c -0.319,-0.382 -0.633,-0.691 -0.946,-0.928 -0.306,-0.241 -0.644,-0.422 -1.007,-0.547 -0.36,-0.12 -0.758,-0.184 -1.186,-0.184 -0.566,0 -1.096,0.127 -1.578,0.374 -0.482,0.26 -0.902,0.613 -1.256,1.079 -0.353,0.465 -0.621,1.014 -0.807,1.645 -0.183,0.627 -0.273,1.308 -0.273,2.044 0,1.546 0.363,2.759 1.088,3.624 0.726,0.866 1.68,1.298 2.861,1.298 0.684,0 1.262,-0.125 1.731,-0.375 0.468,-0.24 0.927,-0.618 1.373,-1.129 v 3.659 c 0,0.509 0.097,0.893 0.293,1.153 0.193,0.261 0.466,0.39 0.828,0.39 0.359,0 0.635,-0.12 0.832,-0.356 0.193,-0.238 0.293,-0.593 0.293,-1.058 V 16.094 c 0,-0.472 -0.106,-0.827 -0.315,-1.061 -0.209,-0.238 -0.478,-0.355 -0.81,-0.355 -0.32,0 -0.592,0.122 -0.805,0.367 -0.211,0.243 -0.316,0.591 -0.316,1.049" /><path
           id="path34"
           style="fill:#2f2825;fill-opacity:1;fill-rule:nonzero;stroke:none"
           d="m 304.646,19.711 c 0,1.007 -0.214,1.796 -0.64,2.358 -0.426,0.56 -1,0.845 -1.717,0.845 -0.467,0 -0.873,-0.128 -1.228,-0.378 -0.352,-0.254 -0.625,-0.624 -0.817,-1.115 -0.191,-0.485 -0.287,-1.055 -0.287,-1.71 0,-0.648 0.096,-1.213 0.283,-1.696 0.188,-0.484 0.457,-0.855 0.811,-1.114 0.347,-0.255 0.765,-0.381 1.238,-0.381 0.717,0 1.291,0.28 1.717,0.846 0.426,0.563 0.64,1.348 0.64,2.345 m 2.383,0 c 0,-0.735 -0.111,-1.416 -0.33,-2.044 -0.22,-0.617 -0.539,-1.155 -0.955,-1.604 -0.42,-0.449 -0.918,-0.784 -1.498,-1.03 -0.58,-0.238 -1.236,-0.355 -1.957,-0.355 -0.719,0 -1.365,0.117 -1.939,0.363 -0.575,0.24 -1.073,0.587 -1.495,1.038 -0.417,0.452 -0.736,0.982 -0.957,1.595 -0.216,0.619 -0.324,1.294 -0.324,2.041 0,0.75 0.112,1.435 0.33,2.057 0.221,0.625 0.535,1.156 0.948,1.601 0.412,0.44 0.91,0.781 1.498,1.02 0.588,0.238 1.23,0.361 1.939,0.361 0.719,0 1.373,-0.123 1.957,-0.365 0.584,-0.242 1.086,-0.589 1.504,-1.037 0.418,-0.448 0.734,-0.982 0.949,-1.6 0.223,-0.615 0.33,-1.298 0.33,-2.041" /><path
           id="path36"
           style="fill:#2f2825;fill-opacity:1;fill-rule:nonzero;stroke:none"
           d="m 317.059,21.757 c -0.178,-0.419 -0.264,-1.157 -0.264,-2.222 v -3.293 c 0,-0.518 -0.111,-0.912 -0.34,-1.174 -0.225,-0.26 -0.525,-0.39 -0.896,-0.39 -0.358,0 -0.649,0.13 -0.87,0.39 -0.224,0.262 -0.334,0.656 -0.334,1.174 v 3.952 c 0,0.621 -0.023,1.105 -0.064,1.454 -0.041,0.342 -0.15,0.627 -0.33,0.849 -0.176,0.222 -0.463,0.333 -0.85,0.333 -0.775,0 -1.285,-0.279 -1.535,-0.84 -0.248,-0.555 -0.367,-1.355 -0.367,-2.397 v -3.351 c 0,-0.516 -0.113,-0.908 -0.334,-1.166 -0.225,-0.268 -0.52,-0.398 -0.881,-0.398 -0.361,0 -0.66,0.13 -0.887,0.398 -0.23,0.258 -0.339,0.65 -0.339,1.163 v 7.094 c 0,0.467 0.097,0.821 0.302,1.062 0.209,0.241 0.479,0.366 0.817,0.366 0.324,0 0.595,-0.114 0.812,-0.34 0.217,-0.228 0.326,-0.54 0.326,-0.941 v -0.235 c 0.411,0.516 0.852,0.894 1.321,1.134 0.468,0.241 0.996,0.363 1.566,0.363 0.596,0 1.106,-0.125 1.535,-0.375 0.432,-0.245 0.783,-0.622 1.061,-1.122 0.4,0.504 0.83,0.886 1.289,1.129 0.459,0.246 0.965,0.368 1.519,0.368 0.655,0 1.211,-0.13 1.68,-0.4 0.471,-0.267 0.82,-0.646 1.053,-1.144 0.205,-0.448 0.305,-1.152 0.305,-2.117 v -4.839 c 0,-0.518 -0.114,-0.912 -0.336,-1.174 -0.231,-0.26 -0.528,-0.39 -0.899,-0.39 -0.359,0 -0.654,0.13 -0.881,0.398 -0.232,0.258 -0.347,0.65 -0.347,1.166 v 4.17 c 0,0.532 -0.022,0.958 -0.065,1.279 -0.043,0.326 -0.16,0.591 -0.353,0.809 -0.19,0.219 -0.483,0.33 -0.868,0.33 -0.312,0 -0.611,-0.099 -0.888,-0.288 -0.287,-0.197 -0.5,-0.457 -0.658,-0.785" /><path
           id="path38"
           style="fill:#2f2825;fill-opacity:1;fill-rule:nonzero;stroke:none"
           d="m 330.504,19.664 c -0.35,-0.136 -0.856,-0.274 -1.52,-0.425 -0.662,-0.148 -1.123,-0.255 -1.379,-0.327 -0.255,-0.071 -0.498,-0.205 -0.728,-0.407 -0.234,-0.208 -0.35,-0.49 -0.35,-0.854 0,-0.378 0.137,-0.696 0.409,-0.958 0.273,-0.266 0.63,-0.396 1.072,-0.396 0.469,0 0.904,0.109 1.299,0.325 0.398,0.212 0.689,0.493 0.873,0.83 0.215,0.375 0.324,0.991 0.324,1.859 z m 0.156,-3.591 c -0.576,-0.466 -1.131,-0.814 -1.668,-1.044 -0.533,-0.236 -1.137,-0.351 -1.801,-0.351 -0.613,0 -1.144,0.127 -1.607,0.374 -0.463,0.253 -0.816,0.594 -1.066,1.027 -0.248,0.429 -0.375,0.892 -0.375,1.396 0,0.678 0.211,1.254 0.621,1.734 0.408,0.474 0.974,0.796 1.691,0.961 0.152,0.036 0.527,0.115 1.123,0.242 0.602,0.13 1.11,0.245 1.539,0.35 0.424,0.104 0.889,0.233 1.387,0.384 -0.031,0.657 -0.156,1.136 -0.377,1.447 -0.225,0.303 -0.691,0.453 -1.389,0.453 -0.605,0 -1.056,-0.085 -1.365,-0.262 -0.303,-0.173 -0.564,-0.439 -0.779,-0.794 -0.221,-0.349 -0.371,-0.581 -0.461,-0.693 -0.092,-0.113 -0.285,-0.164 -0.578,-0.164 -0.27,0 -0.498,0.087 -0.69,0.263 -0.197,0.18 -0.295,0.407 -0.295,0.689 0,0.436 0.149,0.861 0.444,1.267 0.297,0.414 0.757,0.752 1.382,1.022 0.627,0.267 1.409,0.398 2.342,0.398 1.041,0 1.864,-0.131 2.463,-0.388 0.596,-0.253 1.016,-0.657 1.262,-1.22 0.248,-0.553 0.373,-1.294 0.373,-2.213 0,-0.58 0,-1.078 -0.006,-1.48 -0.006,-0.408 -0.006,-0.86 -0.014,-1.355 0,-0.465 0.075,-0.953 0.223,-1.455 0.145,-0.505 0.219,-0.832 0.219,-0.974 0,-0.255 -0.117,-0.489 -0.344,-0.697 -0.225,-0.207 -0.484,-0.312 -0.775,-0.312 -0.244,0 -0.483,0.117 -0.725,0.355 -0.234,0.241 -0.488,0.589 -0.754,1.04" /><path
           id="path40"
           style="fill:#2f2825;fill-opacity:1;fill-rule:nonzero;stroke:none"
           d="m 337.622,23.345 v -7.158 c 0,-0.5 -0.113,-0.875 -0.338,-1.129 -0.226,-0.25 -0.513,-0.38 -0.86,-0.38 -0.348,0 -0.635,0.13 -0.85,0.388 -0.219,0.264 -0.326,0.634 -0.326,1.121 v 7.088 c 0,0.486 0.107,0.856 0.326,1.104 0.215,0.25 0.502,0.375 0.85,0.375 0.347,0 0.634,-0.125 0.86,-0.375 0.225,-0.248 0.338,-0.592 0.338,-1.034 m -1.175,2.563 c -0.328,0 -0.609,0.105 -0.845,0.322 -0.235,0.21 -0.354,0.514 -0.354,0.901 0,0.349 0.121,0.636 0.363,0.867 0.239,0.228 0.52,0.335 0.836,0.335 0.307,0 0.583,-0.101 0.822,-0.305 0.234,-0.205 0.353,-0.508 0.353,-0.897 0,-0.384 -0.115,-0.681 -0.346,-0.894 -0.234,-0.216 -0.51,-0.329 -0.829,-0.329" /><path
           id="path42"
           style="fill:#2f2825;fill-opacity:1;fill-rule:nonzero;stroke:none"
           d="m 342.235,23.381 v -0.296 c 0.414,0.572 0.873,0.995 1.366,1.264 0.498,0.268 1.066,0.405 1.714,0.405 0.623,0 1.184,-0.142 1.68,-0.431 0.488,-0.282 0.859,-0.68 1.102,-1.201 0.156,-0.306 0.256,-0.635 0.304,-0.983 0.043,-0.35 0.071,-0.797 0.071,-1.343 v -4.609 c 0,-0.5 -0.114,-0.875 -0.328,-1.129 -0.217,-0.25 -0.502,-0.38 -0.848,-0.38 -0.352,0 -0.641,0.13 -0.854,0.39 -0.222,0.262 -0.336,0.632 -0.336,1.119 v 4.126 c 0,0.821 -0.105,1.444 -0.322,1.876 -0.222,0.433 -0.656,0.651 -1.306,0.651 -0.422,0 -0.807,-0.132 -1.157,-0.398 -0.347,-0.259 -0.601,-0.623 -0.763,-1.084 -0.116,-0.368 -0.176,-1.056 -0.176,-2.073 v -3.098 c 0,-0.503 -0.111,-0.882 -0.336,-1.135 -0.225,-0.247 -0.512,-0.374 -0.863,-0.374 -0.342,0 -0.625,0.13 -0.844,0.388 -0.223,0.264 -0.332,0.634 -0.332,1.121 v 7.158 c 0,0.473 0.097,0.823 0.297,1.057 0.195,0.234 0.468,0.352 0.808,0.352 0.207,0 0.399,-0.056 0.563,-0.156 0.174,-0.101 0.304,-0.26 0.406,-0.459 0.1,-0.211 0.154,-0.461 0.154,-0.758" /><path
           id="path44"
           style="fill:#2f2825;fill-opacity:1;fill-rule:nonzero;stroke:none"
           d="m 352.282,23.21 1.918,-5.626 2.071,5.872 c 0.166,0.472 0.324,0.803 0.482,1.002 0.16,0.194 0.393,0.296 0.711,0.296 0.303,0 0.558,-0.107 0.775,-0.322 0.207,-0.21 0.315,-0.452 0.315,-0.736 0,-0.108 -0.022,-0.233 -0.059,-0.374 -0.035,-0.149 -0.078,-0.286 -0.129,-0.415 -0.051,-0.123 -0.101,-0.271 -0.17,-0.432 l -2.279,-5.9 c -0.064,-0.169 -0.148,-0.387 -0.248,-0.647 -0.104,-0.258 -0.217,-0.478 -0.34,-0.669 -0.127,-0.182 -0.279,-0.322 -0.459,-0.426 -0.185,-0.103 -0.408,-0.155 -0.67,-0.155 -0.336,0 -0.603,0.079 -0.804,0.238 -0.202,0.161 -0.35,0.335 -0.444,0.529 -0.094,0.188 -0.258,0.566 -0.482,1.13 l -2.264,5.835 c -0.053,0.145 -0.107,0.291 -0.164,0.435 -0.053,0.145 -0.096,0.291 -0.137,0.444 -0.035,0.155 -0.056,0.284 -0.056,0.389 0,0.173 0.048,0.34 0.15,0.507 0.098,0.167 0.236,0.305 0.408,0.409 0.176,0.104 0.362,0.16 0.567,0.16 0.392,0 0.664,-0.118 0.812,-0.359 0.149,-0.234 0.315,-0.629 0.496,-1.185" /><path
           id="path46"
           style="fill:#2f2825;fill-opacity:1;fill-rule:nonzero;stroke:none"
           d="m 361.995,20.519 h 4.305 c -0.057,0.844 -0.274,1.479 -0.656,1.897 -0.381,0.419 -0.881,0.63 -1.502,0.63 -0.588,0 -1.077,-0.213 -1.454,-0.639 -0.38,-0.424 -0.607,-1.055 -0.693,-1.888 m 4.647,-1.41 h -4.647 c 0.002,-0.566 0.115,-1.059 0.322,-1.493 0.217,-0.426 0.496,-0.749 0.846,-0.97 0.352,-0.219 0.74,-0.325 1.164,-0.325 0.283,0 0.545,0.034 0.777,0.101 0.235,0.074 0.463,0.182 0.686,0.329 0.217,0.148 0.418,0.304 0.606,0.479 0.183,0.167 0.431,0.395 0.72,0.687 0.125,0.114 0.299,0.165 0.524,0.165 0.246,0 0.441,-0.067 0.591,-0.209 0.153,-0.141 0.225,-0.335 0.225,-0.588 0,-0.224 -0.082,-0.487 -0.252,-0.789 -0.168,-0.296 -0.416,-0.585 -0.762,-0.863 -0.339,-0.274 -0.765,-0.499 -1.279,-0.685 -0.51,-0.18 -1.098,-0.27 -1.769,-0.27 -1.524,0 -2.711,0.456 -3.555,1.36 -0.844,0.912 -1.268,2.141 -1.268,3.691 0,0.742 0.108,1.417 0.313,2.042 0.209,0.626 0.512,1.164 0.912,1.61 0.4,0.451 0.891,0.797 1.478,1.032 0.588,0.239 1.235,0.359 1.952,0.359 0.921,0 1.718,-0.204 2.382,-0.615 0.666,-0.408 1.163,-0.932 1.493,-1.578 0.332,-0.651 0.496,-1.308 0.496,-1.984 0,-0.62 -0.166,-1.025 -0.512,-1.207 -0.346,-0.189 -0.822,-0.279 -1.443,-0.279" /><path
           id="path48"
           style="fill:#2f2825;fill-opacity:1;fill-rule:nonzero;stroke:none"
           d="m 379.116,17.746 c 0,-0.308 -0.088,-0.639 -0.267,-0.988 -0.178,-0.352 -0.444,-0.685 -0.809,-1.002 -0.361,-0.318 -0.82,-0.574 -1.373,-0.766 -0.549,-0.197 -1.172,-0.292 -1.857,-0.292 -1.471,0 -2.616,0.447 -3.438,1.338 -0.82,0.894 -1.236,2.087 -1.236,3.589 0,1.016 0.187,1.918 0.568,2.696 0.377,0.778 0.918,1.385 1.633,1.81 0.711,0.429 1.566,0.641 2.559,0.641 0.615,0 1.175,-0.095 1.693,-0.28 0.512,-0.189 0.943,-0.432 1.305,-0.726 0.357,-0.297 0.627,-0.614 0.818,-0.95 0.185,-0.335 0.281,-0.648 0.281,-0.939 0,-0.293 -0.103,-0.543 -0.322,-0.752 -0.209,-0.206 -0.465,-0.31 -0.766,-0.31 -0.199,0 -0.361,0.058 -0.488,0.164 -0.135,0.102 -0.279,0.269 -0.445,0.509 -0.289,0.458 -0.59,0.806 -0.907,1.04 -0.316,0.229 -0.718,0.347 -1.207,0.347 -0.697,0 -1.265,-0.29 -1.693,-0.861 -0.432,-0.576 -0.644,-1.357 -0.644,-2.35 0,-0.465 0.058,-0.897 0.164,-1.286 0.111,-0.392 0.271,-0.722 0.48,-0.999 0.209,-0.276 0.463,-0.484 0.758,-0.625 0.291,-0.145 0.617,-0.216 0.973,-0.216 0.474,0 0.884,0.113 1.222,0.345 0.338,0.232 0.641,0.583 0.903,1.051 0.144,0.284 0.298,0.5 0.468,0.66 0.166,0.157 0.371,0.231 0.617,0.231 0.288,0 0.532,-0.111 0.717,-0.341 0.196,-0.234 0.293,-0.477 0.293,-0.738" /><path
           id="path50"
           style="fill:#2f2825;fill-opacity:1;fill-rule:nonzero;stroke:none"
           d="m 381.321,24.543 h 0.262 v 1.491 c 0,0.396 0.01,0.713 0.031,0.939 0.02,0.227 0.073,0.419 0.17,0.584 0.09,0.167 0.225,0.307 0.401,0.414 0.171,0.104 0.365,0.154 0.58,0.154 0.3,0 0.574,-0.117 0.816,-0.351 0.16,-0.16 0.266,-0.349 0.309,-0.574 0.045,-0.227 0.064,-0.554 0.064,-0.97 v -1.687 h 0.873 c 0.336,0 0.594,-0.083 0.77,-0.25 0.179,-0.166 0.265,-0.377 0.265,-0.638 0,-0.333 -0.125,-0.57 -0.381,-0.7 -0.25,-0.131 -0.611,-0.198 -1.082,-0.198 h -0.445 v -4.565 c 0,-0.388 0.014,-0.686 0.039,-0.897 0.029,-0.211 0.104,-0.38 0.215,-0.507 0.109,-0.132 0.293,-0.199 0.551,-0.199 0.138,0 0.326,0.025 0.566,0.079 0.233,0.051 0.418,0.076 0.555,0.076 0.189,0 0.367,-0.083 0.517,-0.236 0.151,-0.164 0.231,-0.359 0.231,-0.597 0,-0.398 -0.205,-0.703 -0.625,-0.917 -0.422,-0.211 -1.02,-0.316 -1.801,-0.316 -0.742,0 -1.306,0.13 -1.689,0.39 -0.381,0.262 -0.635,0.619 -0.75,1.084 -0.121,0.46 -0.18,1.073 -0.18,1.842 v 4.763 h -0.316 c -0.336,0 -0.598,0.083 -0.78,0.255 -0.181,0.168 -0.269,0.382 -0.269,0.643 0,0.261 0.094,0.472 0.279,0.638 0.191,0.167 0.465,0.25 0.824,0.25" /><path
           id="path52"
           style="fill:#2f2825;fill-opacity:1;fill-rule:nonzero;stroke:none"
           d="m 393.999,19.711 c 0,1.007 -0.215,1.796 -0.639,2.358 -0.429,0.56 -0.998,0.845 -1.718,0.845 -0.465,0 -0.873,-0.128 -1.227,-0.378 -0.355,-0.254 -0.627,-0.624 -0.816,-1.115 -0.192,-0.485 -0.289,-1.055 -0.289,-1.71 0,-0.648 0.097,-1.213 0.285,-1.696 0.187,-0.484 0.455,-0.855 0.806,-1.114 0.35,-0.255 0.762,-0.381 1.241,-0.381 0.72,0 1.289,0.28 1.718,0.846 0.424,0.563 0.639,1.348 0.639,2.345 m 2.383,0 c 0,-0.735 -0.11,-1.416 -0.332,-2.044 -0.219,-0.617 -0.539,-1.155 -0.955,-1.604 -0.418,-0.449 -0.918,-0.784 -1.496,-1.03 -0.58,-0.238 -1.229,-0.355 -1.957,-0.355 -0.723,0 -1.37,0.117 -1.942,0.363 -0.572,0.24 -1.072,0.587 -1.49,1.038 -0.42,0.452 -0.74,0.982 -0.955,1.595 -0.217,0.619 -0.324,1.294 -0.324,2.041 0,0.75 0.107,1.435 0.324,2.057 0.226,0.625 0.537,1.156 0.949,1.601 0.414,0.44 0.912,0.781 1.496,1.02 0.592,0.238 1.237,0.361 1.942,0.361 0.72,0 1.369,-0.123 1.957,-0.365 0.586,-0.242 1.086,-0.589 1.504,-1.037 0.414,-0.448 0.738,-0.982 0.953,-1.6 0.216,-0.615 0.326,-1.298 0.326,-2.041" /><path
           id="path54"
           style="fill:#2f2825;fill-opacity:1;fill-rule:nonzero;stroke:none"
           d="m 400.612,18.25 v -2.063 c 0,-0.503 -0.113,-0.882 -0.34,-1.135 -0.226,-0.247 -0.513,-0.374 -0.863,-0.374 -0.34,0 -0.623,0.13 -0.842,0.38 -0.22,0.254 -0.328,0.629 -0.328,1.129 v 6.896 c 0,1.115 0.383,1.671 1.155,1.671 0.39,0 0.677,-0.134 0.853,-0.392 0.172,-0.258 0.264,-0.645 0.287,-1.152 0.283,0.507 0.576,0.894 0.875,1.152 0.299,0.258 0.695,0.392 1.192,0.392 0.503,0 0.984,-0.134 1.457,-0.392 0.466,-0.258 0.705,-0.605 0.705,-1.034 0,-0.303 -0.104,-0.556 -0.303,-0.749 -0.197,-0.195 -0.414,-0.297 -0.648,-0.297 -0.086,0 -0.297,0.058 -0.631,0.171 -0.334,0.111 -0.629,0.169 -0.885,0.169 -0.346,0 -0.629,-0.094 -0.848,-0.289 -0.22,-0.192 -0.392,-0.472 -0.515,-0.847 -0.121,-0.378 -0.209,-0.822 -0.252,-1.342 C 400.636,19.63 400.612,19 400.612,18.25" /><path
           id="path56"
           style="fill:#2f2825;fill-opacity:1;fill-rule:nonzero;stroke:none"
           d="m 413.261,17.915 c 0,-0.685 -0.16,-1.269 -0.483,-1.757 -0.32,-0.488 -0.791,-0.853 -1.414,-1.108 -0.625,-0.245 -1.381,-0.372 -2.279,-0.372 -0.846,0 -1.58,0.136 -2.191,0.409 -0.608,0.272 -1.059,0.611 -1.346,1.018 -0.293,0.407 -0.442,0.817 -0.442,1.227 0,0.272 0.096,0.507 0.286,0.699 0.183,0.197 0.42,0.291 0.701,0.291 0.25,0 0.443,-0.064 0.576,-0.189 0.135,-0.133 0.258,-0.309 0.383,-0.537 0.244,-0.445 0.533,-0.774 0.877,-0.992 0.334,-0.221 0.799,-0.328 1.388,-0.328 0.473,0 0.864,0.112 1.168,0.333 0.303,0.22 0.461,0.473 0.461,0.757 0,0.438 -0.162,0.757 -0.474,0.953 -0.321,0.205 -0.838,0.395 -1.565,0.575 -0.816,0.213 -1.482,0.435 -1.996,0.667 -0.514,0.233 -0.93,0.543 -1.234,0.923 -0.307,0.377 -0.463,0.85 -0.463,1.407 0,0.498 0.142,0.967 0.428,1.405 0.283,0.444 0.707,0.796 1.259,1.06 0.553,0.264 1.221,0.398 2.006,0.398 0.614,0 1.166,-0.069 1.658,-0.201 0.489,-0.132 0.903,-0.313 1.225,-0.535 0.328,-0.225 0.58,-0.472 0.75,-0.743 0.174,-0.276 0.258,-0.542 0.258,-0.8 0,-0.286 -0.09,-0.514 -0.276,-0.703 -0.183,-0.174 -0.445,-0.267 -0.777,-0.267 -0.246,0 -0.451,0.071 -0.625,0.22 -0.168,0.143 -0.367,0.36 -0.586,0.647 -0.18,0.243 -0.39,0.439 -0.637,0.583 -0.244,0.144 -0.574,0.218 -0.99,0.218 -0.429,0 -0.789,-0.095 -1.068,-0.287 -0.285,-0.19 -0.43,-0.428 -0.43,-0.713 0,-0.261 0.106,-0.474 0.313,-0.641 0.211,-0.166 0.49,-0.303 0.845,-0.414 0.356,-0.109 0.842,-0.245 1.463,-0.4 0.737,-0.186 1.338,-0.41 1.805,-0.672 0.467,-0.258 0.82,-0.565 1.061,-0.92 0.244,-0.357 0.365,-0.76 0.365,-1.211" /><path
           id="path58"
           style="fill:#2f2825;fill-opacity:1;fill-rule:nonzero;stroke:none"
           d="m 415.956,14.678 c -0.359,0 -0.67,0.117 -0.928,0.363 -0.265,0.24 -0.394,0.581 -0.394,1.014 0,0.367 0.123,0.686 0.369,0.953 0.25,0.265 0.56,0.395 0.926,0.395 0.363,0 0.675,-0.13 0.927,-0.393 0.262,-0.259 0.393,-0.583 0.393,-0.955 0,-0.429 -0.131,-0.767 -0.393,-1.01 -0.252,-0.245 -0.552,-0.367 -0.9,-0.367" /><path
           id="path60"
           style="fill:#2f2825;fill-opacity:1;fill-rule:nonzero;stroke:none"
           d="m 426.456,19.711 c 0,1.007 -0.215,1.796 -0.641,2.358 -0.425,0.56 -0.996,0.845 -1.714,0.845 -0.465,0 -0.87,-0.128 -1.225,-0.378 -0.355,-0.254 -0.627,-0.624 -0.816,-1.115 -0.19,-0.485 -0.288,-1.055 -0.288,-1.71 0,-0.648 0.092,-1.213 0.28,-1.696 0.193,-0.484 0.461,-0.855 0.812,-1.114 0.35,-0.255 0.762,-0.381 1.237,-0.381 0.718,0 1.289,0.28 1.714,0.846 0.426,0.563 0.641,1.348 0.641,2.345 m 2.387,0 c 0,-0.735 -0.11,-1.416 -0.334,-2.044 -0.221,-0.617 -0.537,-1.155 -0.955,-1.604 -0.42,-0.449 -0.912,-0.784 -1.496,-1.03 -0.579,-0.238 -1.231,-0.355 -1.957,-0.355 -0.719,0 -1.366,0.117 -1.94,0.363 -0.574,0.24 -1.068,0.587 -1.488,1.038 -0.426,0.452 -0.742,0.982 -0.963,1.595 -0.213,0.619 -0.322,1.294 -0.322,2.041 0,0.75 0.109,1.435 0.33,2.057 0.224,0.625 0.535,1.156 0.945,1.601 0.412,0.44 0.912,0.781 1.498,1.02 0.586,0.238 1.229,0.361 1.94,0.361 0.718,0 1.371,-0.123 1.957,-0.365 0.588,-0.242 1.088,-0.589 1.505,-1.037 0.416,-0.448 0.733,-0.982 0.954,-1.6 0.216,-0.615 0.326,-1.298 0.326,-2.041" /><path
           id="path62"
           style="fill:#2f2825;fill-opacity:1;fill-rule:nonzero;stroke:none"
           d="m 433.071,18.25 v -2.063 c 0,-0.503 -0.113,-0.882 -0.338,-1.135 -0.224,-0.247 -0.513,-0.374 -0.859,-0.374 -0.348,0 -0.625,0.13 -0.848,0.38 -0.22,0.254 -0.33,0.629 -0.33,1.129 v 6.896 c 0,1.115 0.391,1.671 1.158,1.671 0.395,0 0.676,-0.134 0.85,-0.392 0.172,-0.258 0.274,-0.645 0.293,-1.152 0.279,0.507 0.57,0.894 0.869,1.152 0.299,0.258 0.699,0.392 1.194,0.392 0.505,0 0.99,-0.134 1.455,-0.392 0.47,-0.258 0.707,-0.605 0.707,-1.034 0,-0.303 -0.102,-0.556 -0.299,-0.749 -0.203,-0.195 -0.416,-0.297 -0.652,-0.297 -0.084,0 -0.293,0.058 -0.627,0.171 -0.334,0.111 -0.629,0.169 -0.887,0.169 -0.346,0 -0.627,-0.094 -0.854,-0.289 -0.216,-0.192 -0.388,-0.472 -0.511,-0.847 -0.12,-0.378 -0.205,-0.822 -0.25,-1.342 C 433.097,19.63 433.071,19 433.071,18.25" /><path
           id="path64"
           style="fill:#2f2825;fill-opacity:1;fill-rule:nonzero;stroke:none"
           d="m 439.927,19.796 c 0,-1.002 0.211,-1.763 0.633,-2.279 0.418,-0.512 0.964,-0.773 1.627,-0.773 0.392,0 0.769,0.115 1.119,0.336 0.351,0.222 0.636,0.553 0.859,0.997 0.221,0.447 0.328,0.986 0.328,1.619 0,1.01 -0.215,1.796 -0.64,2.359 -0.424,0.567 -0.987,0.849 -1.68,0.849 -0.676,0 -1.223,-0.275 -1.629,-0.809 -0.412,-0.542 -0.617,-1.305 -0.617,-2.299 m 6.883,3.143 v -7.202 c 0,-0.824 -0.09,-1.532 -0.254,-2.122 -0.168,-0.596 -0.44,-1.086 -0.809,-1.472 -0.371,-0.388 -0.859,-0.673 -1.455,-0.863 -0.602,-0.182 -1.35,-0.278 -2.24,-0.278 -0.821,0 -1.553,0.115 -2.194,0.354 -0.644,0.246 -1.14,0.549 -1.488,0.93 -0.348,0.375 -0.523,0.765 -0.523,1.167 0,0.303 0.097,0.549 0.299,0.738 0.195,0.195 0.433,0.289 0.71,0.289 0.35,0 0.651,-0.162 0.916,-0.481 0.127,-0.168 0.262,-0.331 0.395,-0.495 0.135,-0.169 0.285,-0.313 0.451,-0.428 0.166,-0.121 0.367,-0.208 0.6,-0.266 0.226,-0.058 0.496,-0.086 0.799,-0.086 0.611,0 1.093,0.09 1.429,0.268 0.34,0.177 0.578,0.427 0.717,0.747 0.131,0.321 0.217,0.662 0.231,1.031 0.029,0.371 0.044,0.956 0.06,1.768 -0.365,-0.53 -0.793,-0.937 -1.267,-1.215 -0.477,-0.278 -1.049,-0.414 -1.706,-0.414 -0.8,0 -1.496,0.207 -2.085,0.634 -0.598,0.424 -1.055,1.014 -1.374,1.78 -0.314,0.759 -0.478,1.64 -0.478,2.64 0,0.748 0.096,1.421 0.295,2.02 0.189,0.596 0.465,1.102 0.83,1.514 0.355,0.412 0.773,0.723 1.242,0.933 0.473,0.206 0.983,0.312 1.549,0.312 0.67,0 1.254,-0.137 1.746,-0.407 0.498,-0.266 0.951,-0.692 1.375,-1.266 v 0.333 c 0,0.433 0.106,0.762 0.305,1.005 0.203,0.234 0.465,0.354 0.781,0.354 0.461,0 0.766,-0.156 0.918,-0.468 0.148,-0.313 0.225,-0.766 0.225,-1.354" /><path
           id="path66"
           style="fill:#2f2825;fill-opacity:1;fill-rule:nonzero;stroke:none"
           d="m 343.892,47.07 h 3.523 c -0.25,-1.899 -1.027,-3.382 -2.322,-4.448 -1.197,-1.044 -2.649,-1.559 -4.344,-1.559 -2.299,0 -4.136,0.807 -5.505,2.42 -1.301,1.534 -1.949,3.514 -1.949,5.933 0,2.48 0.644,4.462 1.932,5.962 1.281,1.494 3.1,2.246 5.446,2.246 1.746,0 3.223,-0.473 4.42,-1.41 1.271,-1.012 2.047,-2.435 2.322,-4.258 h -3.523 c -0.303,1.59 -1.276,2.382 -2.928,2.382 -2.721,0 -4.087,-1.613 -4.087,-4.84 0,-1.512 0.352,-2.746 1.052,-3.709 0.701,-0.964 1.687,-1.446 2.963,-1.446 1.896,0 2.898,0.91 3,2.727 m -13.867,2.222 c 0,-3.152 1,-5.821 2.998,-7.993 1.998,-2.176 4.443,-3.264 7.345,-3.264 2.893,0 5.34,1.088 7.336,3.264 2,2.172 2.994,4.841 2.994,7.993 0,3.15 -0.994,5.816 -2.994,7.991 -1.996,2.177 -4.443,3.264 -7.336,3.264 -2.902,0 -5.347,-1.087 -7.345,-3.264 -1.998,-2.175 -2.998,-4.841 -2.998,-7.991 m -3.576,0 c 0,4.011 1.358,7.434 4.074,10.278 2.719,2.839 6.002,4.259 9.845,4.259 3.838,0 7.115,-1.42 9.838,-4.259 2.719,-2.844 4.08,-6.267 4.08,-10.278 0,-4.014 -1.361,-7.442 -4.08,-10.28 -2.723,-2.842 -6,-4.263 -9.838,-4.263 -3.843,0 -7.126,1.421 -9.845,4.263 -2.716,2.838 -4.074,6.266 -4.074,10.28" /><path
           id="path68"
           style="fill:#2f2825;fill-opacity:1;fill-rule:nonzero;stroke:none"
           d="m 332.08,40.174 2.029,-1.722 14.931,19.169 -2.029,1.72 z" /><path
           id="path70"
           style="fill:#2f2825;fill-opacity:1;fill-rule:evenodd;stroke:none"
           d="m 324.138,108.651 c 139.477,0 253.236,2.592 253.236,5.771 0,3.176 -113.759,5.767 -253.236,5.767 -139.482,0 -253.24,-2.591 -253.24,-5.767 0,-3.179 113.758,-5.771 253.24,-5.771" /><path
           id="path72"
           style="fill:#2f2825;fill-opacity:1;fill-rule:evenodd;stroke:none"
           d="m 350.317,582.779 58.478,49.095 12.183,-96.488 z" /><path
           id="path74"
           style="fill:#2f2825;fill-opacity:1;fill-rule:evenodd;stroke:none"
           d="m 305.257,571.608 -91.036,53.534 18.271,-114.119 z" /><path
           id="path76"
           style="fill:#2f2825;fill-opacity:1;fill-rule:evenodd;stroke:none"
           d="m 397.582,572.611 c 15.108,0 31.724,-14.015 37.115,-31.303 5.393,-17.29 -2.483,-31.306 -17.593,-31.306 -15.105,0 -31.722,14.016 -37.113,31.306 -5.39,17.288 2.487,31.303 17.591,31.303" /><path
           id="path78"
           style="fill:#2f2825;fill-opacity:1;fill-rule:evenodd;stroke:none"
           d="m 487.125,125.436 56.095,58.134 c 8.719,9.037 10.986,21.744 5.928,33.238 l -1.196,2.724 c -6.568,14.925 -0.139,32.378 14.539,39.474 l 22.146,10.71 c 10.019,4.846 16.389,13.653 17.852,24.686 1.464,11.035 -2.389,21.198 -10.797,28.489 -5.726,4.959 -12.85,8.098 -20.922,9.087 -13.502,1.652 -25.876,-3.154 -34.718,-13.49 l -31.28,-36.566 C 491.938,266.915 490.289,246.253 500.586,229.4 l 0.307,-0.501 c 10.748,-17.585 8.4,-39.444 -5.835,-54.346 L 477.84,156.528 Z" /><path
           id="path80"
           style="fill:#463d3b;fill-opacity:1;fill-rule:evenodd;stroke:none"
           d="m 580.917,329.419 c -3.17,1.257 -6.565,2.119 -10.147,2.559 -13.502,1.652 -25.876,-3.154 -34.718,-13.49 l -31.28,-36.566 C 491.938,266.915 490.289,246.253 500.586,229.4 l 0.307,-0.501 c 10.748,-17.585 8.4,-39.444 -5.835,-54.346 l -17.218,-18.025 4.766,-15.967 44.909,46.536 c 8.715,9.035 10.982,21.743 5.928,33.238 l -1.201,2.726 c -6.562,14.919 -0.151,32.405 14.54,39.471 l 27.596,13.276 c 10.03,4.823 16.389,13.652 17.854,24.686 1.463,11.032 -2.389,21.195 -10.799,28.486 -0.173,0.147 -0.343,0.293 -0.516,0.439" /><path
           id="path82"
           style="fill:#2f2825;fill-opacity:1;fill-rule:evenodd;stroke:none"
           d="m 334.23,418.95 c 58.617,0 106.425,37.006 106.425,82.382 0,45.375 -47.808,82.382 -106.425,82.382 -58.618,0 -106.424,-37.007 -106.424,-82.382 0,-45.376 47.806,-82.382 106.424,-82.382" /><path
           id="path84"
           style="fill:#2f2825;fill-opacity:1;fill-rule:evenodd;stroke:none"
           d="m 244.265,457.299 25.859,-342.877 h 233.362 v 29.308 c 0,72.806 -30.433,135.461 -87.66,180.467 -28.871,22.707 -49.248,53.143 -60.396,90.453 l -8.372,28.02 z" /><path
           id="path86"
           style="fill:#2f2825;fill-opacity:1;fill-rule:evenodd;stroke:none"
           d="m 294.484,114.422 h -33.017 c -11.46,0 -20.835,9.374 -20.835,20.836 0,11.46 9.375,20.837 20.835,20.837 h 33.017 z" /><path
           id="path88"
           style="fill:#766864;fill-opacity:1;fill-rule:evenodd;stroke:none"
           d="m 312.595,312.523 v 0 c 14.032,0 26.339,-11.477 27.347,-25.511 l 12.422,-172.59 h -51.023 l -12.422,172.59 c -1.01,14.034 9.643,25.511 23.676,25.511" /><path
           id="path90"
           style="fill:#2f2825;fill-opacity:1;fill-rule:evenodd;stroke:none"
           d="m 368.563,114.422 h -33.018 c -11.459,0 -20.836,9.374 -20.836,20.836 0,11.46 9.377,20.837 20.836,20.837 h 33.018 z" /><path
           id="path92"
           style="fill:#766864;fill-opacity:1;fill-rule:evenodd;stroke:none"
           d="m 509.834,275.897 37.745,41.271 c 13.297,14.541 35.498,-9.194 17.149,-19.393 l -49.447,-27.487 c -4.997,-2.777 -9.847,0.802 -5.447,5.609" /><path
           id="path94"
           style="fill:#d7c9c4;fill-opacity:1;fill-rule:evenodd;stroke:none"
           d="m 357.492,476.564 c 14.036,0 25.483,9.181 25.483,20.436 0,11.254 -11.447,20.435 -25.483,20.435 -14.037,0 -25.486,-9.181 -25.486,-20.435 0,-11.255 11.449,-20.436 25.486,-20.436" /><path
           id="path96"
           style="fill:#d7c9c4;fill-opacity:1;fill-rule:evenodd;stroke:none"
           d="m 396.279,476.564 c 14.036,0 25.484,9.181 25.484,20.436 0,11.254 -11.448,20.435 -25.484,20.435 -14.035,0 -25.484,-9.181 -25.484,-20.435 0,-11.255 11.449,-20.436 25.484,-20.436" /><path
           id="path98"
           style="fill:#d7c9c4;fill-opacity:1;fill-rule:evenodd;stroke:none"
           d="m 357.015,503.49 c 1.227,30.91 -1.334,55.107 -11.22,66.354 27.604,-9.599 41.636,-32.495 48.723,-62.188 -5.397,-4.246 -10.793,-8.493 -16.19,-12.74 -7.104,2.858 -14.211,5.715 -21.313,8.574" /><path
           id="path100"
           style="fill:#bf5741;fill-opacity:1;fill-rule:evenodd;stroke:none"
           d="m 376.733,499.483 c -7.442,0.221 -16.917,10.304 -12.846,16.539 4.524,6.932 18.641,6.704 23.786,0.219 4.149,-5.226 -4.274,-16.955 -10.94,-16.758" /><path
           id="path102"
           style="fill:#766864;fill-opacity:1;fill-rule:evenodd;stroke:none"
           d="m 318.875,513.908 c 15.313,0 27.807,10.944 27.807,24.363 0,13.418 -12.494,24.362 -27.807,24.362 -15.318,0 -27.811,-10.944 -27.811,-24.362 0,-13.419 12.493,-24.363 27.811,-24.363" /><path
           id="path104"
           style="fill:#2f2825;fill-opacity:1;fill-rule:evenodd;stroke:none"
           d="m 325.286,523.174 c 5.958,0 10.818,6.783 10.818,15.097 0,8.314 -4.86,15.096 -10.818,15.096 -5.961,0 -10.819,-6.782 -10.819,-15.096 0,-8.314 4.858,-15.097 10.819,-15.097" /><path
           id="path106"
           style="fill:#d7c9c4;fill-opacity:1;fill-rule:evenodd;stroke:none"
           d="m 328.492,537.056 c 2.249,0 4.085,2.561 4.085,5.702 0,3.141 -1.836,5.703 -4.085,5.703 -2.25,0 -4.087,-2.562 -4.087,-5.703 0,-3.141 1.837,-5.702 4.087,-5.702" /><path
           id="path108"
           style="fill:#766864;fill-opacity:1;fill-rule:evenodd;stroke:none"
           d="m 401.14,569.846 c 11.193,0 21.738,-10.383 23.555,-23.191 1.819,-12.807 -5.78,-23.191 -16.971,-23.191 -11.195,0 -21.737,10.384 -23.554,23.191 -1.818,12.808 5.78,23.191 16.97,23.191" /><path
           id="path110"
           style="fill:#2f2825;fill-opacity:1;fill-rule:evenodd;stroke:none"
           d="m 407.065,561.025 c 4.354,0 8.797,-6.433 9.924,-14.37 1.125,-7.935 -1.493,-14.369 -5.846,-14.369 -4.354,0 -8.796,6.434 -9.924,14.369 -1.123,7.937 1.494,14.37 5.846,14.37" /><path
           id="path112"
           style="fill:#d7c9c4;fill-opacity:1;fill-rule:evenodd;stroke:none"
           d="m 410.064,556.355 c 1.645,0 3.322,-2.43 3.748,-5.428 0.425,-2.998 -0.563,-5.428 -2.207,-5.428 -1.645,0 -3.325,2.43 -3.749,5.428 -0.425,2.998 0.562,5.428 2.208,5.428" /><path
           id="path114"
           style="fill:#bf5741;fill-opacity:1;fill-rule:evenodd;stroke:none"
           d="m 261.562,558.527 -37.95,39.954 12.409,-70.628 z" /><path
           id="path116"
           style="fill:#bf5741;fill-opacity:1;fill-rule:evenodd;stroke:none"
           d="M 242.759,172.675 H 134.368 L 118.98,114.422 h 139.167 z" /><path
           id="path118"
           style="fill:#a4402a;fill-opacity:1;fill-rule:evenodd;stroke:none"
           d="m 177.686,172.675 45.52,-6.409 7.053,-36.545 -65.395,-15.299 h 93.283 l -15.388,58.253 z" /><path
           id="path120"
           style="fill:#e07c63;fill-opacity:1;fill-rule:evenodd;stroke:none"
           d="m 146.096,152.722 2.42,11.779 h 14.745 l -0.875,-11.779 z m -6.075,-29.573 4.593,22.359 h 17.235 l -1.663,-22.371 z" /></g></g></g></svg>