<?xml version="1.0" encoding="UTF-8" standalone="no"?>
<!-- Created with Inkscape (http://www.inkscape.org/) -->

<svg
   xmlns:dc="http://purl.org/dc/elements/1.1/"
   xmlns:cc="http://creativecommons.org/ns#"
   xmlns:rdf="http://www.w3.org/1999/02/22-rdf-syntax-ns#"
   xmlns:svg="http://www.w3.org/2000/svg"
   xmlns="http://www.w3.org/2000/svg"
   version="1.1"
   width="235"
   height="235"
   id="svg3539">
  <defs
     id="defs3541">
    <clipPath
       id="clipPath440">
      <path
         d="m 0,0 1247.244,0 0,1757.48 L 0,1757.48 0,0 z"
         id="path442" />
    </clipPath>
  </defs>
  <metadata
     id="metadata3544">
    <rdf:RDF>
      <cc:Work
         rdf:about="">
        <dc:format>image/svg+xml</dc:format>
        <dc:type
           rdf:resource="http://purl.org/dc/dcmitype/StillImage" />
        <dc:title></dc:title>
      </cc:Work>
    </rdf:RDF>
  </metadata>
  <g
     transform="translate(-210.8708,-372.27817)"
     id="layer1">
    <g
       transform="matrix(1.25,0,0,-1.25,-906.37207,2479.0943)"
       id="g436">
      <g
         clip-path="url(#clipPath440)"
         id="g438">
        <g
           transform="translate(849.6914,1578.9849)"
           id="g444" />
        <g
           transform="translate(861.4548,1548.1631)"
           id="g448" />
        <g
           transform="translate(987.9248,1502.4504)"
           id="g452">
          <path
             d="M 0,0 C 49.1,0 89.193,40.075 89.193,89.255 89.193,138.38 49.1,178.442 0,178.442 -49.064,178.442 -89.133,138.38 -89.133,89.255 -89.133,40.075 -49.064,0 0,0"
             id="path454"
             style="fill:#ffffff;fill-opacity:1;fill-rule:nonzero;stroke:none" />
        </g>
        <g
           transform="translate(987.9248,1502.4504)"
           id="g456">
          <path
             d="M 0,0 C 49.1,0 89.193,40.075 89.193,89.255 89.193,138.38 49.1,178.442 0,178.442 -49.064,178.442 -89.133,138.38 -89.133,89.255 -89.133,40.075 -49.064,0 0,0 z"
             id="path458"
             style="fill:none;stroke:#003976;stroke-width:1.995;stroke-linecap:butt;stroke-linejoin:miter;stroke-miterlimit:3.86400008;stroke-opacity:1;stroke-dasharray:none" />
        </g>
        <g
           transform="translate(987.9248,1676.7502)"
           id="g460">
          <path
             d="m 0,0 c 46.841,0 85.107,-38.198 85.107,-85.045 0,-46.897 -38.266,-85.119 -85.107,-85.119 -46.77,0 -85.047,38.222 -85.047,85.119 C -85.047,-38.198 -46.77,0 0,0 m 0,-15.656 c -38.144,0 -69.391,-31.179 -69.391,-69.389 0,-38.278 31.247,-69.462 69.391,-69.462 38.275,0 69.451,31.184 69.451,69.462 0,38.21 -31.176,69.389 -69.451,69.389"
             id="path462"
             style="fill:#003976;fill-opacity:1;fill-rule:nonzero;stroke:none" />
        </g>
        <g
           transform="translate(987.9248,1526.5237)"
           id="g464">
          <path
             d="m 0,0 c 35.86,0 65.181,29.248 65.181,65.181 0,35.868 -29.321,65.111 -65.181,65.111 -35.806,0 -65.104,-29.243 -65.104,-65.111 C -65.104,29.248 -35.806,0 0,0"
             id="path466"
             style="fill:#bcbec0;fill-opacity:1;fill-rule:nonzero;stroke:none" />
        </g>
        <g
           transform="translate(987.9248,1526.5237)"
           id="g468">
          <path
             d="m 0,0 c 35.86,0 65.181,29.248 65.181,65.181 0,35.868 -29.321,65.111 -65.181,65.111 -35.806,0 -65.104,-29.243 -65.104,-65.111 C -65.104,29.248 -35.806,0 0,0 z"
             id="path470"
             style="fill:none;stroke:#003976;stroke-width:1.97599995;stroke-linecap:butt;stroke-linejoin:miter;stroke-miterlimit:3.86400008;stroke-opacity:1;stroke-dasharray:none" />
        </g>
        <g
           transform="translate(987.9248,1529.1401)"
           id="g472">
          <path
             d="m 0,0 c 34.458,0 62.565,28.101 62.565,62.565 0,34.408 -28.107,62.493 -62.565,62.493 -34.392,0 -62.434,-28.085 -62.434,-62.493 C -62.434,28.101 -34.392,0 0,0"
             id="path474"
             style="fill:#ffffff;fill-opacity:1;fill-rule:nonzero;stroke:none" />
        </g>
      </g>
    </g>
    <g
       transform="matrix(1.25,0,0,-1.25,309.86635,555.36889)"
       id="g476">
      <path
         d="m 0,0 0,5.154 -1.33,0 0,2.076 L 2.682,7.832 2.682,0 0,0 z m 6.162,7.635 0.266,0 0.274,0.062 0.267,0 2.744,0 0.272,0 0.334,-0.062 0.261,0 0.274,-0.081 0.261,-0.05 0.206,-0.151 0.267,-0.123 0.201,-0.134 0.133,-0.201 0.201,-0.189 0.067,-0.284 0.066,-0.266 0.073,-0.267 0.06,-0.258 0,-0.278 0.068,-0.267 0,-0.861 L 12.389,3.746 12.329,3.271 12.256,2.812 12.051,2.41 11.856,2.02 11.588,1.607 11.321,1.269 10.987,1 10.786,0.796 10.58,0.734 10.381,0.6 10.174,0.467 9.919,0.405 9.713,0.263 9.518,0.205 9.245,0.143 8.973,0.066 8.772,0 8.504,0 8.238,-0.062 l -0.273,0 -0.334,-0.073 -0.268,0 -0.267,0 -0.195,0 -0.059,0 -0.085,0 -0.055,0 -0.067,0 -0.079,0 -0.255,0.073 -2.01,2.277 1.871,0 0.473,0.056 0.461,0 0.346,0 0.255,0.073 -0.195,0 -0.406,0 -0.339,0 -0.329,0 L 6.094,2.41 5.828,2.475 5.577,2.549 5.287,2.676 5.092,2.738 4.825,2.943 4.698,3.082 4.497,3.35 4.364,3.545 4.291,3.812 4.219,4.086 l -0.056,0.26 0,0.257 0,0.879 0,0.199 0.056,0.278 0.072,0.259 0.073,0.204 0.133,0.205 0.128,0.197 0.129,0.205 0.216,0.123 0.195,0.143 0.261,0.129 0.195,0.08 0.274,0.05 0.267,0.081 z m 3.004,-2.881 0.207,0 0.212,0 0.128,0 0,0.127 0,0.14 0,0.133 0,0.067 -0.068,0 -0.127,0 -0.074,0 -0.199,0 -0.139,0 -1.743,0 -0.116,0 -0.151,0 -0.127,0 -0.068,0 -0.059,0 0,-0.067 0,-0.34 0,-0.06 0.059,0 0.068,-0.07 0.127,0 0.151,0 0.195,0 0.139,0 0.116,0 0.218,0 0.122,0 0.139,0 0.2,0 0.128,0 0.212,0 0.335,0.07 0.115,0 z m 5.907,-4.816 3.416,5.283 -2.292,0 0,-1.475 -2.593,0.479 0,3.472 8.291,0 0,-1.869 -3.605,-5.89 -3.217,0 z m 9.9,7.697 0.263,0 0.334,0.062 0.272,0 2.672,0 0.356,0 0.257,-0.062 0.26,0 0.257,-0.081 0.278,-0.05 0.261,-0.151 0.201,-0.123 0.2,-0.134 0.207,-0.201 0.133,-0.189 0.128,-0.284 0.077,-0.266 0.056,-0.267 0.068,-0.258 0,-0.278 0,-0.267 0,-0.861 0,-0.479 L 31.185,3.271 31.052,2.812 30.924,2.41 30.662,2.02 30.457,1.607 30.117,1.269 29.783,1 29.594,0.796 29.387,0.734 29.177,0.6 28.982,0.467 28.787,0.405 28.58,0.263 28.32,0.205 28.051,0.143 27.841,0.066 27.584,0 l -0.278,0 -0.255,-0.062 -0.274,0 -0.261,-0.073 -0.278,0 -0.334,0 -0.201,0 -0.062,0 -0.071,0 -0.068,0 -0.071,0 -0.068,0 -0.272,0.073 -1.931,2.277 1.886,0 0.456,0.056 0.402,0 0.399,0 0.213,0.073 -0.139,0 -0.408,0 -0.328,0 -0.405,0 -0.263,0.066 -0.338,0.065 -0.274,0.074 -0.195,0.127 -0.278,0.062 -0.193,0.205 -0.195,0.139 -0.134,0.268 -0.135,0.195 -0.144,0.267 -0.06,0.274 0,0.26 0,0.257 0,0.879 0,0.199 0,0.278 0.06,0.259 0.144,0.204 0.068,0.205 0.133,0.197 0.201,0.205 0.189,0.123 0.211,0.143 0.195,0.129 0.278,0.08 0.189,0.05 0.278,0.081 z m 3.078,-2.881 0.201,0 0.123,0 0.205,0 0,0.127 0,0.14 -0.066,0.133 0,0.067 -0.061,0 -0.078,0 -0.123,0 -0.145,0 -0.189,0 -1.736,0 -0.139,0 -0.139,0 -0.062,0 -0.071,0 -0.068,0 0,-0.067 0,-0.34 0,-0.06 0.139,-0.07 0.062,0 0.195,0 0.139,0 0.207,0 0.138,0 0.134,0 0.195,0 0.139,0 0.133,0 0.201,0 0.122,0 0.334,0.07 0.21,0 z"
         id="path478"
         style="fill:#e0e1e2;fill-opacity:1;fill-rule:nonzero;stroke:none" />
    </g>
    <g
       transform="matrix(1.25,0,0,-1.25,310.45785,554.78489)"
       id="g480">
      <path
         d="m 0,0 0,5.075 -1.33,0 0,1.282 L 1.742,6.828 1.742,0 0,0 z m 8.5,2.344 -0.201,0 -0.195,0 -0.139,0 -0.201,-0.073 -0.201,0 -0.121,0 -0.218,0 -0.195,0 -0.332,0 -0.414,0.073 -0.255,0 -0.34,0.072 -0.266,0 L 5.227,2.476 5.021,2.615 4.814,2.677 4.692,2.804 4.559,2.943 4.426,3.078 4.281,3.279 4.225,3.48 l 0,0.201 -0.073,0.198 0,0.257 0,0.879 0,0.199 0.073,0.208 0,0.201 0.056,0.127 0.071,0.205 0.145,0.139 0.122,0.145 0.123,0.118 0.211,0.071 0.151,0.134 0.189,0.067 0.201,0.056 0.256,0 0.205,0.077 0.274,0 0.329,0 2.614,0 0.34,0 0.257,0 0.266,-0.077 0.207,-0.056 0.201,-0.067 0.199,-0.066 0.206,-0.068 0.128,-0.133 0.139,-0.135 0.127,-0.205 0.073,-0.133 0.068,-0.257 0.066,-0.205 0,-0.196 0.073,-0.279 0,-0.266 0,-0.861 0,-0.479 L 11.449,2.883 11.315,2.476 11.182,2.082 10.976,1.748 10.781,1.402 10.514,1.139 10.18,0.88 10.035,0.741 9.846,0.606 9.701,0.533 9.512,0.413 9.311,0.328 9.112,0.267 8.828,0.133 8.633,0.066 8.438,0.066 8.176,0 7.965,-0.062 l -0.262,0 -0.261,-0.073 -0.284,0 -0.268,0 -0.267,0 -0.127,0 -0.068,0 -0.06,0 -0.085,0 -0.054,0 -0.067,0 -0.134,0 -1.214,1.483 0.874,0 0.474,0 0.461,0 0.406,0.054 0.413,0 L 7.764,1.475 8.031,1.553 8.299,1.599 8.5,1.676 8.693,1.748 8.9,1.877 9.045,2.008 9.24,2.136 l 0.071,0.135 0.135,0.145 0,0.06 -0.073,-0.06 -0.201,0 -0.201,0 -0.143,-0.072 -0.195,0 -0.133,0 z m 1.145,2.541 -0.071,0.07 0,0.06 0,0.06 -0.062,0 -0.066,0.089 -0.073,0 -0.133,0 -0.128,0.05 -0.141,0 -0.143,0 -0.195,0 -1.743,0 -0.193,0 -0.139,0 -0.062,0 -0.128,0 -0.085,-0.05 -0.121,0 -0.079,-0.089 -0.055,0 0,-0.06 -0.073,-0.06 0,-0.07 0,-0.059 0,-0.072 0,-0.067 0,-0.34 0,-0.13 0,-0.081 0,-0.046 0,-0.071 0.073,-0.072 0.055,0 0,-0.068 0.079,0 0.067,-0.059 0.054,0 0.145,0 0.13,0 0.216,-0.062 0.116,0 0.218,0 0.189,0 0.145,0 0.121,0 0.201,0 0.139,0 0.128,0.062 0.212,0 0.195,0 0.139,0 0.195,0 0.199,0 0.141,0.059 0.199,0 0.201,0 0.189,0 0,0.068 0,0.072 0,0.071 0,0.197 0,0.193 0,0.139 -0.056,0.135 0,0.131 z m 5.822,-5.02 3.406,5.349 -3.551,0 0,-1.394 -1.73,0.316 0,2.626 7.425,0 0,-1.34 -3.418,-5.557 -2.132,0 z m 11.833,2.479 -0.189,0 -0.145,0 -0.189,0 -0.199,-0.073 -0.139,0 -0.195,0 -0.201,0 -0.139,0 -0.408,0 -0.328,0.073 -0.332,0 -0.263,0.072 -0.278,0 -0.262,0.06 -0.205,0.139 -0.135,0.062 -0.199,0.127 -0.145,0.139 -0.127,0.135 -0.062,0.201 -0.056,0.201 -0.077,0.201 0,0.198 -0.068,0.257 0,0.879 0.068,0.199 0,0.208 0.077,0.201 0.056,0.127 0.062,0.205 0.127,0.139 0.145,0.145 0.133,0.118 0.128,0.071 0.212,0.134 0.195,0.067 0.205,0.056 0.206,0 0.263,0.077 0.261,0 0.272,0 2.672,0 0.273,0 0.266,0 0.278,-0.077 0.263,-0.056 0.189,-0.067 0.211,-0.066 0.123,-0.068 0.201,-0.133 0.139,-0.135 0.066,-0.205 0.061,-0.133 0.145,-0.257 0,-0.205 0.062,-0.196 0,-0.279 0,-0.266 0,-0.861 0,-0.479 L 30.256,2.883 30.188,2.476 29.984,2.082 29.845,1.748 29.582,1.402 29.31,1.139 29.038,0.88 28.858,0.741 28.704,0.606 28.509,0.533 28.314,0.413 28.107,0.328 27.902,0.267 27.707,0.133 27.501,0.066 27.234,0.066 27.033,0 l -0.256,-0.062 -0.273,0 -0.201,-0.073 -0.26,0 -0.334,0 -0.278,0 -0.134,0 -0.067,0 -0.062,0 -0.071,0 -0.068,0 -0.071,0 -0.068,0 -1.263,1.483 0.946,0 0.456,0 0.402,0 0.473,0.054 0.34,0 0.334,0.073 0.334,0.078 0.26,0.046 0.195,0.077 0.211,0.072 0.129,0.129 0.195,0.131 0.139,0.128 0.134,0.135 0.139,0.145 0,0.06 -0.139,-0.06 -0.134,0 -0.195,0 -0.212,-0.072 -0.133,0 -0.201,0 z m 1.141,2.541 0,0.07 -0.044,0.06 0,0.06 -0.083,0.089 -0.139,0 -0.068,0 -0.128,0.05 -0.133,0 -0.212,0 -0.189,0 -1.736,0 -0.139,0 -0.139,0 -0.134,0 -0.129,0 -0.071,-0.05 -0.068,0 -0.071,0 -0.068,-0.089 0,-0.06 -0.054,0 0,-0.06 0,-0.07 -0.073,-0.059 0,-0.072 0,-0.067 0,-0.34 0,-0.13 0,-0.081 0.073,-0.046 0,-0.071 0,-0.072 0.054,0 0.068,-0.068 0.139,-0.059 0.071,0 0.129,0 0.134,0 0.139,-0.062 0.195,0 0.206,0 0.139,0 0.134,0 0.195,0 0.139,0 0.133,0 0.201,0.062 0.199,0 0.123,0 0.211,0 0.133,0 0.201,0 0.2,0.059 0.196,0 0.139,0 0.195,0 0.071,0.068 0,0.072 0,0.071 0,0.197 -0.071,0.193 0,0.139 0,0.135 -0.068,0.131 z"
         id="path482"
         style="fill:#003976;fill-opacity:1;fill-rule:nonzero;stroke:none" />
    </g>
    <g
       transform="matrix(1.25,0,0,-1.25,341.08286,489.70677)"
       id="g488">
      <path
         d="M 0,0 5.818,-9.968 11.561,0 0,0 z m 11.7,0.195 4.097,7.093 -20.02,0 4.09,-7.093 11.833,0 z m -20.131,14.461 4.079,-7.098 20.277,0 4.157,7.098 -28.513,0 z m 32.711,7.291 -36.924,0 4.152,-7.102 28.709,0 4.063,7.102 z m -4.063,7.284 -60.497,0 -4.09,-7.079 68.733,0 -4.146,7.079 z m -60.362,0.274 60.227,0 -4.102,7.09 -52.05,0 -4.075,-7.09 z m 51.924,14.467 -43.636,0 -4.086,-7.098 51.79,0 -4.068,7.098 z m -43.497,0.193 43.362,0 -4.09,7.09 -35.188,0 -4.084,-7.09 z"
         id="path490"
         style="fill:#e6e7e8;fill-opacity:1;fill-rule:nonzero;stroke:none" />
    </g>
    <g
       transform="matrix(1.25,0,0,-1.25,348.35506,498.57714)"
       id="g492">
      <path
         d="m 0,0 -1.549,0 -28.485,0 16.653,29.044 -36.934,0 -17.601,-30.517 17.667,-30.71 68.794,0 17.711,30.71 -17.655,30.517 -1.804,0 L 0,0 z"
         id="path494"
         style="fill:#e6e7e8;fill-opacity:1;fill-rule:nonzero;stroke:none" />
    </g>
    <g
       transform="matrix(1.25,0,0,-1.25,344.24956,491.54114)"
       id="g496">
      <path
         d="M 0,0 6.428,0 3.284,-5.569 0,0 z m 8.299,3.198 -10.102,0 -2.337,4.086 14.849,0 -2.41,-4.086 z m -16.726,11.373 23.355,0 -2.416,-4.074 -18.529,0 -2.41,4.074 z m 27.625,7.368 -2.395,-4.079 -27.033,0 -2.404,4.079 31.832,0 z m -2.333,7.296 -58.809,0 -2.416,-4.084 63.558,0 -2.333,4.084 z m -57,3.213 55.123,0 -2.398,4.147 -50.315,0 -2.41,-4.147 z m 48.494,11.443 -41.871,0 -2.41,-4.086 46.703,0 -2.422,4.086 z m -40.002,3.273 38.133,0 -2.333,4.08 -33.467,0 -2.333,-4.08 z"
         id="path498"
         style="fill:#003976;fill-opacity:1;fill-rule:nonzero;stroke:none" />
    </g>
    <g
       transform="matrix(1.25,0,0,-1.25,370.60456,464.11688)"
       id="g500">
      <path
         d="m 0,0 -0.139,0 -16.788,-29.042 -33.467,0 16.676,29.042 -33.535,0 -16.726,-29.042 16.799,-29.244 67.041,0 L 16.73,-29.042 0,0 z"
         id="path502"
         style="fill:#fcb131;fill-opacity:1;fill-rule:nonzero;stroke:none" />
    </g>
    <g
       transform="matrix(1.25,0,0,-1.25,258.02735,548.84239)"
       id="g504">
      <path
         d="m 0,0 -4.219,-3.68 2.611,-3.013 4.213,3.615 1.408,-1.61 -4.152,-3.607 -0.195,-0.151 -0.195,-0.12 -0.344,-0.197 -0.2,-0.071 -0.329,-0.067 -0.34,0 -0.34,0.138 -0.328,0.269 -0.334,0.257 -0.127,0.204 -2.823,3.279 -0.199,0.201 -0.135,0.212 -0.134,0.193 -0.065,0.195 -0.135,0.338 -0.072,0.336 0.072,0.328 0.2,0.333 0.269,0.34 0.328,0.268 4.163,3.613 L 0,0 z m -18.929,23.021 0.6,-1.676 0.124,-0.34 0.122,-0.328 0.212,-0.255 0.145,-0.286 0.122,-0.193 0.139,-0.197 0.2,-0.151 0.267,-0.2 0.189,-0.054 0.34,-0.066 0.201,0 0.205,0 0.274,0.066 0.255,0.127 0.206,0.066 0.205,0.061 0.324,0.275 0.211,0.204 0.195,0.348 0.061,0.255 0,0.201 0,0.2 0,0.19 0,0.208 -0.061,0.274 -0.128,0.201 -0.88,2.398 -3.528,-1.328 z m -2.493,1.402 6.963,2.537 1.607,-4.348 0.061,-0.271 0.128,-0.206 0,-0.184 0.073,-0.274 0.074,-0.201 0,-0.208 0.059,-0.19 0,-0.2 0,-0.201 0,-0.207 0,-0.199 0,-0.197 -0.059,-0.204 -0.074,-0.336 -0.073,-0.193 -0.128,-0.34 -0.195,-0.267 -0.195,-0.336 -0.278,-0.199 -0.26,-0.272 -0.34,-0.195 -0.4,-0.206 -0.34,-0.134 -0.257,-0.129 -0.206,-0.07 -0.272,0 -0.255,-0.069 -0.207,0 -0.272,0 -0.201,0 -0.267,0 -0.195,0 -0.206,0.069 -0.261,0.07 -0.206,0.073 -0.201,0.128 -0.201,0.062 -0.199,0.138 -0.268,0.263 -0.195,0.205 -0.261,0.206 -0.222,0.269 -0.056,0.193 -0.207,0.336 -0.133,0.332 -0.139,0.207 -0.056,0.268 -0.139,0.193 -0.068,0.286 -1.473,4.001 z m 8.297,-6.691 0.207,0.056 0.189,0.077 0.213,0.062 0.199,0.073 0.334,0.066 0.2,-0.066 0.335,-0.073 0.272,-0.195 0.266,-0.34 0.195,-0.328 0.141,-0.268 2.337,-4.484 0.073,-0.268 0.127,-0.19 0.066,-0.21 0.074,-0.197 0,-0.205 0,-0.34 0,-0.193 -0.207,-0.274 -0.195,-0.274 -0.211,-0.128 -0.328,-0.266 -0.212,-0.066 -3.206,-1.672 -0.26,-0.131 -0.213,-0.062 -0.189,-0.073 -0.207,-0.072 -0.334,0 -0.193,0 -0.268,0.145 -0.207,0.062 -0.266,0.262 -0.195,0.333 -0.139,0.204 -0.134,0.201 -2.347,4.549 -0.057,0.201 -0.133,0.199 -0.067,0.21 0,0.201 -0.072,0.19 0,0.2 0,0.195 0.072,0.278 0.127,0.195 0.201,0.275 0.206,0.139 0.335,0.193 0.195,0.135 3.276,1.674 z m -2.336,-3.624 2.141,-4.206 3.406,1.742 -2.135,4.213 -3.412,-1.749 z m 12.049,-4.474 0.73,-1.141 -0.263,-0.19 -0.21,-0.216 -0.05,-0.189 0,-0.207 0.127,-0.268 0.133,-0.193 0.124,-0.213 0.216,-0.201 0.195,-0.061 0.19,0 0.206,0.061 0.323,0.201 L -0.946,5.882 -1.402,5.619 -1.691,5.55 -1.875,5.488 -2.082,5.414 -2.277,5.353 l -0.2,0 -0.205,0 -0.189,0 -0.207,0.061 -0.212,0.074 -0.193,0.131 -0.263,0.263 -0.211,0.139 -0.133,0.212 -0.129,0.184 -0.127,0.206 -0.14,0.193 -0.073,0.201 -0.071,0.213 0,0.193 -0.056,0.197 0,0.216 0.056,0.193 0,0.208 0.144,0.201 0.207,0.333 0.128,0.204 0.334,0.325 0.405,0.334 z m -1.336,-6.29 -2.481,3.758 -3.212,-2.081 2.47,-3.746 0.807,0.532 -1.408,2.209 1.408,0.931 2.605,-3.951 -2.203,-1.463 -0.213,-0.151 -0.189,-0.046 -0.199,-0.143 -0.2,-0.068 -0.334,-0.059 -0.207,0 -0.334,0.059 -0.261,0.211 -0.351,0.257 -0.261,0.34 -0.127,0.198 -2.611,4.015 -0.135,0.189 -0.133,0.211 -0.066,0.197 -0.074,0.204 -0.059,0.201 -0.074,0.34 0.074,0.328 0.199,0.34 0.268,0.261 0.328,0.278 0.205,0.121 3.006,2.011 0.211,0.148 0.195,0.046 0.207,0.151 0.334,0.054 0.2,0.074 0.338,-0.074 0.334,-0.054 0.257,-0.274 0.346,-0.278 0.133,-0.182 0.133,-0.201 2.617,-4.012 0.127,-0.209 0.062,-0.21 0.145,-0.195 0.05,-0.193 0.077,-0.34 0,-0.201 0,-0.336 L -2.945,2.282 -3.155,1.931 -3.356,1.807 -3.678,1.603 -4.018,1.34 -5.493,2.943 -4.748,3.344 z m 12.903,-16.998 1.679,-1.268 0.323,2.205 -2.002,-0.937 z m -5.16,-0.199 7.842,3.349 1.475,-1.074 -1.08,-8.492 -1.936,1.467 0.195,1.661 -3.208,2.421 -1.535,-0.668 -1.753,1.336 z m 8.838,-6.495 3.953,6.295 1.807,-1.136 -1.334,-2.217 4.267,0.402 2.823,-1.67 -6.078,-0.4 2.599,-6.218 -2.943,1.808 -1.744,4.348 -1.473,-2.348 -1.877,1.136 z m 11.383,-4.275 1.603,-0.669 0.195,-0.077 0.201,-0.058 0.332,-0.131 0.351,-0.139 0.267,0 0.256,-0.062 0.211,0 0.201,0 0.2,0 0.201,0.062 0.255,0.205 0.274,0.262 0.134,0.201 0.139,0.205 0.133,0.201 0.056,0.272 0.077,0.189 0.068,0.199 0,0.201 0,0.347 -0.145,0.267 -0.056,0.193 -0.201,0.266 -0.266,0.263 -0.213,0.085 -0.193,0.12 -0.263,0.146 -2.344,0.989 -1.473,-3.537 z m -2.74,-0.869 2.935,6.889 4.352,-1.869 0.205,-0.073 0.201,-0.139 0.201,-0.062 0.204,-0.139 0.19,-0.128 0.34,-0.193 0.334,-0.278 0.268,-0.262 0.065,-0.213 0.263,-0.262 0.077,-0.205 0.201,-0.263 0.062,-0.199 0,-0.198 0.127,-0.329 0,-0.208 0,-0.34 0,-0.199 0,-0.189 -0.067,-0.346 -0.06,-0.189 -0.062,-0.205 -0.067,-0.201 -0.072,-0.2 -0.139,-0.205 -0.062,-0.278 -0.133,-0.197 -0.133,-0.201 -0.129,-0.201 -0.205,-0.127 -0.133,-0.205 -0.201,-0.135 -0.195,-0.12 -0.34,-0.278 -0.201,-0.062 -0.266,-0.135 -0.201,-0.065 -0.207,0 -0.204,-0.074 -0.19,0 -0.278,-0.062 -0.324,0.062 -0.332,0 -0.207,0.074 -0.345,0.065 -0.201,0.062 -0.199,0.073 -0.195,0.062 -0.263,0.139 -0.201,0.06 -0.272,0.079 -3.941,1.669 z m 9.101,-3.747 1.936,7.164 7.359,-2.019 -0.473,-1.603 -5.204,1.406 -0.278,-0.939 3.01,-0.865 -0.405,-1.68 -3.063,0.869 -0.339,-1.131 5.345,-1.468 -0.452,-1.749 -7.436,2.015 z m 11.773,1.538 -0.14,-0.201 -0.803,-4.02 -1.931,0.413 1.476,7.218 1.398,-0.271 4.012,-5.008 0.195,-0.136 0.133,0.201 0.813,3.947 1.937,-0.417 -1.475,-7.282 -1.475,0.338 -4.14,5.218 z m 8.43,2.143 0.195,2.074 1.877,-0.139 -0.139,-2.136 -1.933,0.201 z m -0.867,-7.82 0.674,7.345 2.126,-0.212 -0.657,-7.346 -2.143,0.213 z m 2.877,-0.213 0,1.141 4.486,4.548 -3.951,0 0,1.73 7.436,0 0,-1.068 -4.491,-4.482 4.491,-0.061 0,-1.808 -7.971,0 z m 17.388,9.161 -1.803,-0.394 -0.402,2.008 1.804,0.336 0.401,-1.95 z m 2.215,0.413 -1.871,-0.334 -0.405,1.925 1.865,0.405 0.411,-1.996 z m 0.072,-0.479 2.066,0.402 1.141,-5.411 0,-0.201 0.06,-0.278 0,-0.195 0,-0.199 -0.06,-0.208 -0.073,-0.34 -0.199,-0.267 -0.263,-0.189 -0.2,-0.071 -0.201,-0.13 -0.205,-0.069 -0.201,-0.07 -0.261,0 -4.292,-0.867 -0.205,-0.06 -0.251,0 -0.212,-0.085 -0.193,0 -0.207,0.085 -0.195,0 -0.272,0.12 -0.269,0.278 -0.193,0.263 -0.073,0.205 -0.062,0.2 -0.083,0.201 -0.044,0.263 -1.159,5.422 2.155,0.405 1.058,-5.487 3.951,0.795 -1.058,5.488 z m 10.827,-1.34 -1.198,3.815 1.875,0.603 2.217,-7.079 -1.413,-0.475 -6.152,2.599 0,-0.201 1.191,-3.951 -1.869,-0.594 -2.211,7.102 1.415,0.461 5.882,-2.477 0.212,-0.062 0.051,0.201 0,0.058 z m 4.418,-1.939 -2.804,6.89 1.937,0.815 0.145,-0.209 1.658,0.869 4.497,-2.931 0.056,5.275 1.675,0.869 6.283,4.279 0.946,-1.398 -4.486,-3.016 0.535,-0.873 2.611,1.808 0.996,-1.468 -2.666,-1.738 0.662,-0.934 4.547,3.016 1.074,-1.487 -6.357,-4.279 -3.806,5.685 -0.272,-7.894 -1.27,-0.668 -6.423,4.151 2.466,-5.893 -2.004,-0.869 z m -2.872,7.357 -0.801,1.95 1.742,0.74 0.801,-1.952 -1.742,-0.738 z m 22.019,11.111 -2.555,-2.136 0.873,-1.004 2.545,2.078 0.195,0.201 0.089,0.204 -0.612,0.734 -0.213,0.128 -0.2,-0.06 -0.122,-0.145 z m -0.541,-7.832 -4.746,5.696 4.746,3.943 0.33,0.271 0.333,0.131 0.268,0.135 0.211,0 0.334,0 0.262,-0.067 0.272,-0.199 0.267,-0.19 1.209,-1.415 0.201,-0.268 0.121,-0.338 0.072,-0.261 0,-0.201 -0.072,-0.266 0,-0.201 -0.201,-0.274 -0.194,-0.267 -0.211,-0.201 -0.251,-0.201 4.146,0.068 -2.476,-2.072 -3.758,0.263 -0.863,-0.73 1.599,-2.012 -1.599,-1.344 z m 7.025,14.393 -2.672,-2.942 0.662,-0.669 2.75,3.005 0.123,0.197 0.211,0.149 0.345,0.26 0.323,0.201 0.334,0.062 0.328,-0.062 0.213,-0.073 0.322,-0.128 0.34,-0.26 0.205,-0.149 0.668,-0.664 0.201,-0.134 0.139,-0.195 0.256,-0.339 0.145,-0.329 0.05,-0.34 -0.05,-0.343 -0.145,-0.329 -0.061,-0.2 -0.334,-0.329 -0.128,-0.206 -2.894,-3.138 -0.124,-0.201 -0.193,-0.135 -0.207,-0.131 -0.334,-0.275 -0.345,-0.127 -0.329,0 -0.339,0.066 -0.334,0.201 -0.199,0.135 -0.334,0.266 -0.257,0.267 0.996,1.741 0.607,-0.6 2.933,3.211 -0.723,0.662 -2.738,-2.944 -0.147,-0.201 -0.198,-0.128 -0.207,-0.139 -0.266,-0.262 -0.195,-0.07 -0.334,-0.081 -0.207,0 -0.334,0.081 -0.334,0.209 -0.334,0.262 -0.193,0.128 -0.541,0.537 -0.195,0.131 -0.151,0.212 -0.255,0.323 -0.129,0.272 -0.071,0.207 0,0.334 0.071,0.189 0.129,0.34 0.205,0.332 0.133,0.201 0.201,0.201 2.605,2.896 0.195,0.181 0.34,0.275 0.34,0.201 0.26,0.127 0.201,0.072 0.328,-0.072 0.346,-0.068 0.34,-0.198 0.317,-0.275 0.278,-0.243 -1.002,-1.761 -0.607,0.606 z m 0.607,3.893 -1.615,1.329 1.215,1.54 1.603,-1.345 -1.203,-1.524 z m 6.022,-5.1 -5.766,4.764 1.42,1.603 5.694,-4.752 -1.348,-1.615 z m 0.402,10.109 4.675,-3.213 -1.197,-1.742 -4.681,3.134 -1.736,-2.593 -1.475,0.996 4.752,7.029 1.469,-0.996 -1.807,-2.615 z m 6.822,0.201 -6.561,3.545 3.69,6.623 1.469,-0.795 -2.616,-4.75 0.874,-0.472 1.541,2.731 1.537,-0.788 -1.537,-2.817 1.003,-0.547 2.604,4.827 1.686,-0.874 -3.69,-6.683 z m 0.94,14.911 -1.54,-3.604 0.868,-0.401 1.541,3.742 0.133,0.212 0.062,0.194 0.134,0.204 0.138,0.201 0.196,0.262 0.212,0.057 0.261,0.148 0.206,0.058 0.334,0 0.205,-0.058 0.201,-0.069 0.195,-0.079 0.261,-0.057 0.868,-0.328 0.195,-0.135 0.207,-0.065 0.205,-0.139 0.268,-0.194 0.199,-0.339 0.141,-0.263 0.072,-0.193 0,-0.22 -0.072,-0.193 0,-0.201 -0.073,-0.213 -0.068,-0.2 -0.139,-0.259 -1.597,-3.881 -0.127,-0.278 -0.079,-0.184 -0.128,-0.21 -0.267,-0.325 -0.262,-0.201 -0.278,-0.143 -0.195,-0.067 -0.205,0 -0.328,0.067 -0.212,0.072 -0.196,0.071 -0.272,0.051 -0.34,0.2 0.34,1.949 0.802,-0.334 1.681,3.947 -0.946,0.401 -1.537,-3.68 -0.133,-0.267 -0.062,-0.189 -0.145,-0.212 -0.195,-0.267 -0.328,-0.274 -0.266,-0.127 -0.195,0 -0.358,0 -0.199,0 -0.189,0.061 -0.195,0.066 -0.262,0.135 -0.669,0.273 -0.21,0.067 -0.201,0.131 -0.195,0.147 -0.21,0.054 -0.201,0.275 -0.201,0.262 -0.071,0.199 0,0.199 0,0.34 0.071,0.2 0.068,0.201 0.077,0.267 0.056,0.206 1.543,3.613 0.066,0.184 0.138,0.206 0.062,0.205 0.139,0.207 0.261,0.268 0.268,0.193 0.334,0.073 0.338,0 0.201,0 0.189,-0.073 0.414,-0.139 0.26,-0.116 -0.26,-2.01 -0.804,0.319 z m 6.626,1.154 -7.159,2.066 0.595,2.078 7.164,-2.078 -0.6,-2.066 z m -7.566,2.333 -2.008,0.603 0.538,1.876 1.999,-0.608 -0.529,-1.871 z m -144.996,8.307 0.329,0 0.334,-0.141 0.268,-0.133 0.267,-0.195 0.206,-0.269 0.133,-0.266 0.128,-0.34 0,-0.344 0,-0.328 -0.128,-0.34 -0.133,-0.266 -0.206,-0.263 -0.267,-0.205 -0.268,-0.197 -0.334,-0.065 -0.329,-0.074 -0.349,0.074 -0.325,0.065 -0.337,0.197 -0.201,0.205 -0.201,0.263 -0.207,0.266 -0.054,0.34 -0.073,0.328 0.073,0.344 0.054,0.34 0.207,0.266 0.201,0.269 0.201,0.195 0.337,0.133 0.325,0.141 0.349,0 z m 150.09,0 0.316,0 0.346,-0.141 0.267,-0.133 0.266,-0.195 0.213,-0.269 0.189,-0.266 0.067,-0.34 0.078,-0.344 -0.078,-0.328 -0.067,-0.34 -0.189,-0.266 -0.213,-0.263 -0.266,-0.205 -0.267,-0.197 -0.346,-0.065 -0.316,-0.074 -0.34,0.074 -0.328,0.065 -0.278,0.197 -0.257,0.205 -0.201,0.263 -0.149,0.266 -0.129,0.34 0,0.328 0,0.344 0.129,0.34 0.149,0.266 0.201,0.269 0.257,0.195 0.278,0.133 0.328,0.141 0.34,0 z m -1.481,13.907 -0.072,2.143 5.699,0.066 0,3.074 -5.828,-0.325 -0.127,2.132 7.424,0.414 0.129,-2.148 0.205,-7.164 0,-0.475 0,-0.857 -0.205,-1.205 -2.672,-2.024 2.342,-2.46 -0.266,-2.614 -3.812,4.225 -3.279,0.262 0.201,2.209 3.2,-0.266 2.688,2.07 0,3.016 -5.627,-0.073 z m -45.563,68.661 -7.301,2.336 2.354,7.031 7.229,-2.41 -0.538,-1.67 -5.166,1.741 -0.322,-0.938 3.004,-1.008 -0.6,-1.603 -2.951,1.012 -0.4,-1.074 5.226,-1.815 -0.199,-0.533 6.021,4.013 1.664,-0.807 0.473,-7.948 3.824,5.87 1.191,-0.728 1.948,-6.162 0.062,-0.2 0.199,0.146 2.149,3.416 1.664,-1.079 -4.012,-6.295 -1.197,0.807 -2.004,6.428 -0.217,-0.206 -2.193,-3.422 -1.414,0.946 -2.137,0.929 -0.072,1.753 -3.618,1.814 -1.397,-1.024 -1.27,0.68 z m -30.517,7.704 -1.141,0 0,-2.622 -2.064,0 -2.957,-0.456 -3.149,2.132 -1.13,-0.212 0.468,-2.534 -2.138,-0.332 -1.209,7.284 6.096,1.014 0.184,0 0.21,0.067 0.195,0 0.207,-0.067 0.206,0 0.267,-0.08 0.255,-0.193 0.286,-0.201 0.127,-0.34 0.128,-0.322 0.266,-1.753 0,-0.199 0,-0.19 0,-0.339 -0.06,-0.269 -0.206,-0.268 -0.195,-0.27 -0.199,-0.07 -0.275,-0.127 -0.204,-0.072 -0.19,-0.056 -0.206,0 3.145,-1.942 0,7.225 6.156,0.074 0.193,-0.074 0.213,0 0.21,0 0.195,-0.073 0.257,-0.066 0.207,-0.135 0.21,-0.193 0.195,-0.274 0.122,-0.267 0,-0.204 0,-0.19 0.067,-1.815 -0.067,-0.336 0,-0.204 -0.122,-0.255 -0.195,-0.274 -0.21,-0.205 -0.334,-0.124 -0.325,-0.139 -0.334,-0.054 -0.282,0 1.547,-1.359 4.074,5.97 1.881,-0.143 3.339,-7.229 1.737,6.89 1.42,-0.329 3.802,-5.215 0.133,-0.199 0.139,0.199 0,0.201 0.946,3.751 1.925,-0.463 -1.73,-7.241 -1.475,0.405 -3.953,5.357 -0.127,-0.207 -0.946,-3.941 -1.659,0.39 -2.36,0.085 -0.735,1.607 -4.007,0.313 -0.935,-1.464 -0.268,0.062 -2.804,0 -2.817,2.56 z m -76.958,-87.341 -0.985,7.504 1.724,0.266 0.669,-5.422 1.001,0.147 -0.401,3.132 1.676,0.201 0.396,-3.151 1.145,0.135 -0.662,5.491 0.585,0.07 -6.079,3.684 0.073,1.869 6.485,3.48 -0.334,-0.074 -0.267,0 -0.207,0.074 -0.39,0 -0.206,2.008 0.869,-0.077 0.535,4.296 -1.064,0.133 -0.483,-4.024 0,-0.251 -0.056,-0.21 -0.068,-0.199 -0.065,-0.209 -0.074,-0.201 -0.201,-0.266 -0.266,-0.27 -0.334,-0.132 -0.334,0 -0.201,-0.069 -0.266,0.069 -0.207,0 -0.801,0.062 -0.195,0.07 -0.199,0 -0.201,0.081 -0.207,0.05 -0.206,0.077 -0.261,0.197 -0.201,0.282 -0.06,0.178 -0.15,0.336 0,0.205 0,0.273 0,0.194 0.083,0.266 0.455,3.885 0,0.259 0.08,0.205 0,0.201 0.054,0.2 0.206,0.344 0.207,0.267 0.255,0.138 0.212,0.062 0.329,0.058 0.206,0 0.195,0 0.199,0 0.401,-0.058 0.207,-1.954 -0.807,0.085 -0.473,-3.958 0.879,-0.054 0.467,3.927 0.073,0.278 0.054,0.259 0,0.205 0.068,0.201 0.21,0.339 0.195,0.273 0.207,0.048 0.266,0.151 0.201,0.057 0.195,0 0.201,0 0.261,0 0.206,0 0.947,-0.127 0.257,-0.081 0.21,0 0.189,-0.048 0.213,-0.068 0.328,-0.205 0.205,-0.2 0.195,-0.34 0.079,-0.334 0,-0.199 0,-0.263 0,-0.195 0,-0.268 -0.541,-4.225 0,-0.267 -0.071,-0.201 -0.068,-0.266 -0.127,-0.34 -0.14,-0.201 0.19,0.07 -0.05,-2.4 -1.543,-0.802 -0.133,-4.012 1.463,-0.873 -0.056,-1.415 0.997,-7.491 -7.363,-0.942 z m 157.996,21.88 -0.55,3.894 -0.925,-0.138 0.535,-3.945 0.068,-0.269 0,-0.27 0,-0.201 0,-0.201 0,-0.204 -0.068,-0.201 -0.145,-0.259 -0.266,-0.271 -0.323,-0.196 -0.206,-0.077 -0.189,-0.051 -0.213,0 -0.199,-0.077 -0.94,-0.133 -0.263,0 -0.205,-0.072 -0.195,0 -0.206,0.072 -0.195,0 -0.195,0.056 -0.278,0.154 -0.261,0.251 -0.067,0.213 -0.134,0.32 -0.073,0.201 -0.066,0.274 -0.067,0.263 -0.595,4.151 0,0.273 -0.074,0.256 0,0.201 0.074,0.205 0,0.205 0.066,0.201 0.135,0.266 0.255,0.268 0.272,0.207 0.207,0.05 0.2,0.072 0.205,0 0.262,0.071 0.395,0.07 0.664,-1.873 -0.863,-0.151 0.668,-4.268 1.006,0.136 -0.607,4.016 0,0.197 -0.065,0.27 0,0.201 0.065,0.201 0,0.193 0.078,0.201 0.117,0.274 0.279,0.263 0.272,0.199 0.189,0.071 0.207,0.07 0.195,0 0.284,0.065 0.73,0.134 0.272,0 0.183,0 0.216,0 0.19,0 0.201,-0.06 0.345,-0.074 0.267,-0.206 0.195,-0.329 0.133,-0.338 0.067,-0.196 0.078,-0.267 0.056,-0.267 0.54,-3.811 0,-0.28 0.066,-0.189 0,-0.269 0,-0.205 -0.066,-0.204 -0.067,-0.336 -0.211,-0.261 -0.262,-0.195 -0.201,-0.066 -0.328,-0.146 -0.205,-0.054 -0.201,0 -0.34,-0.078 -0.73,1.885 0.807,0.118 z m -8.766,13.793 7.164,1.803 1.525,-5.955 0.077,-0.201 0,-0.206 0.057,-0.195 0,-0.19 -0.057,-0.34 -0.077,-0.277 -0.195,-0.255 -0.278,-0.207 -0.257,-0.201 -0.198,-0.083 -1.744,-0.39 -0.205,-0.05 -0.324,-0.083 -0.344,0.083 -0.267,0.123 -0.256,0.122 -0.207,0.278 -0.201,0.33 -0.127,0.333 -0.077,0.2 -1.738,-3.541 -0.796,3.008 1.798,3.345 -0.272,1.139 -2.484,-0.672 -0.517,2.082 z m 6.814,-3.886 -0.797,3.212 -1.335,-0.323 0.806,-3.228 0.067,-0.189 0.122,-0.201 0.207,0 0.813,0.201 0.189,0.061 0,0.201 -0.072,0.266 z m -10.085,11.517 6.878,2.809 2.877,-7.03 -1.607,-0.668 -2.071,5.082 -0.867,-0.394 1.201,-2.955 -1.615,-0.658 -1.207,2.939 -1.058,-0.4 2.076,-5.144 -1.664,-0.679 -2.943,7.098 z m -2.41,4.279 4.546,7.297 1.135,-2.149 -2.893,-4.542 5.293,0 1.08,-1.942 -8.5,0.073 -0.661,1.263 z m -2.962,4.816 6.167,4.151 1.201,-1.742 -6.155,-4.221 -1.213,1.812 z m 0.813,4.613 0.195,0.139 3.078,2.33 1.201,-1.529 -5.949,-4.476 -0.869,1.135 0.33,6.693 -0.201,-0.073 -3.285,-2.478 -1.202,1.605 5.972,4.491 0.852,-1.208 -0.249,-6.423 -0.085,-0.206 0.212,0 z m -6.702,13.719 -3.934,-4.009 2.798,-2.809 3.953,4.014 1.541,-1.548 -3.884,-3.939 -0.189,-0.139 -0.345,-0.263 -0.334,-0.213 -0.334,-0.139 -0.334,0 -0.207,0.086 -0.334,0.127 -0.334,0.272 -0.334,0.338 -3.072,3.074 -0.205,0.133 -0.133,0.199 -0.14,0.209 -0.189,0.328 -0.141,0.332 0,0.329 0.062,0.347 0.201,0.338 0.139,0.189 0.334,0.346 3.885,3.873 1.53,-1.475 z m -22.871,10.375 1.866,-0.94 -0.066,2.205 -1.8,-1.265 z m -26.904,6.757 2.064,-0.134 -0.857,2.01 -1.207,-1.876 z m -5.756,2.616 -3.35,-0.083 0,-1.325 3.35,0 0.195,0 0.213,0.062 0,0.205 0,0.872 0,0.186 -0.213,0 -0.195,0.083 z m -9.84,-0.678 -3.277,-0.537 0.199,-1.401 3.279,0.529 0.206,0.085 0.184,0.05 0,0.199 -0.124,0.874 -0.06,0.201 -0.278,0 -0.129,0 z m -12.439,-8.562 -2.014,7.153 7.362,2.004 0.468,-1.67 -5.276,-1.385 0.267,-0.946 3.066,0.796 0.464,-1.677 -3.078,-0.795 0.278,-1.124 5.352,1.456 0.47,-1.807 -7.359,-2.005 z m -4.619,4.225 1.925,-5.298 -1.993,-0.73 -1.937,5.283 -2.95,-1.07 -0.672,1.671 7.969,2.948 0.662,-1.674 -3.004,-1.13 z m -4.548,-8.025 -3.278,6.689 1.88,0.923 3.329,-6.615 -1.931,-0.997 z m -8.376,-4.7 -3.947,6.295 4.024,2.468 0.195,0.143 0.201,0.139 0.201,0.05 0.193,0.139 0.212,0.073 0.201,0.062 0.199,0.066 0.201,0.073 0.201,0.066 0.334,0.058 0.201,0 0.199,0 0.2,0 0.207,0 0.533,-0.058 0.33,-0.139 0.338,-0.128 0.263,-0.212 0.339,-0.255 0.273,-0.274 0.195,-0.267 0.266,-0.39 0.139,-0.21 0.135,-0.207 0.066,-0.204 0.062,-0.255 0.133,-0.201 0,-0.286 0.072,-0.189 0,-0.261 0.067,-0.21 0,-0.189 -0.067,-0.269 0,-0.206 -0.072,-0.194 -0.068,-0.274 -0.065,-0.205 -0.062,-0.196 -0.201,-0.267 -0.139,-0.278 -0.201,-0.263 -0.26,-0.199 -0.273,-0.26 -0.2,-0.151 -0.334,-0.256 -0.207,-0.13 -0.199,-0.131 -0.195,-0.135 -3.69,-2.283 z m 0.867,2.679 1.549,0.996 0.266,0.207 0.34,0.204 0.266,0.201 0.201,0.201 0.128,0.212 0.206,0.189 0.201,0.333 0.06,0.345 0,0.189 -0.06,0.34 -0.073,0.261 -0.128,0.189 -0.133,0.217 -0.135,0.197 -0.133,0.2 -0.267,0.267 -0.34,0.139 -0.272,0.133 -0.201,0 -0.328,0 -0.211,0 -0.189,-0.072 -0.207,-0.135 -0.2,-0.065 -0.189,-0.139 -2.221,-1.402 2.07,-3.207 z m -7.49,-7.62 -4.544,5.883 5.946,4.681 1.079,-1.336 -4.275,-3.41 0.591,-0.738 2.483,1.939 1.062,-1.336 -2.478,-1.943 0.742,-0.934 4.285,3.4 1.135,-1.469 -6.026,-4.737 z m -11.573,-0.55 5.033,-0.796 -0.553,5.013 1.215,1.147 5.148,-5.432 -1.47,-1.334 -2.871,3.016 0.462,-4.142 -0.462,-0.407 -4.219,0.73 2.945,-3.067 -1.354,-1.28 -5.082,5.428 1.208,1.124 z m -4.006,-11.505 -0.213,0.127 -3.338,2.082 0.996,1.676 6.366,-3.885 -0.801,-1.271 -6.36,-2.073 0.127,-0.209 3.489,-2.132 -1.008,-1.68 -0.195,0.147 -1.274,-2.607 -3.551,-1.402 -0.467,-1.019 2.338,-1.128 -0.931,-1.95 -6.694,3.279 2.67,5.561 0.207,0.328 0.206,0.272 0.255,0.261 0.278,0.147 0.336,0.131 0.261,0 0.21,-0.077 0.329,-0.054 1.593,-0.819 0.21,-0.046 0.274,-0.211 0.267,-0.268 0.127,-0.271 0.079,-0.274 0,-0.189 0,-0.332 -0.139,-0.34 -0.067,-0.201 -0.066,-0.206 3.345,1.475 -5.952,3.684 0.798,1.269 6.082,2.008 0.213,0.062 0,0.135 z m -7.564,-7.886 -1.471,-3.024 1.259,-0.595 1.407,3.016 0.14,0.19 0,0.204 -0.199,0.13 -0.742,0.338 -0.201,0.073 -0.133,-0.201 -0.06,-0.131 z m 0,-15.123 -7.098,2.265 2.338,7.235 1.603,-0.545 -1.664,-5.221 0.936,-0.262 0.991,3.006 1.612,-0.529 -0.934,-3.01 1.069,-0.336 1.748,5.209 1.736,-0.533 -2.337,-7.279 z m -6.229,-1.537 5.488,-1.219 -0.468,-2.076 -5.493,1.213 -0.73,-3.078 -1.742,0.394 1.877,8.299 1.742,-0.394 -0.674,-3.139 z m -0.133,-19.48 0.065,2.136 -2.008,-1.008 1.943,-1.128 z"
         id="path506"
         style="fill:#ffffff;fill-opacity:1;fill-rule:nonzero;stroke:none" />
    </g>
  </g>
</svg>
