<?xml version="1.0" encoding="UTF-8" standalone="no"?>
<!-- Created with Inkscape (http://www.inkscape.org/) -->

<svg
   xmlns:dc="http://purl.org/dc/elements/1.1/"
   xmlns:cc="http://creativecommons.org/ns#"
   xmlns:rdf="http://www.w3.org/1999/02/22-rdf-syntax-ns#"
   xmlns:svg="http://www.w3.org/2000/svg"
   xmlns="http://www.w3.org/2000/svg"
   xmlns:sodipodi="http://sodipodi.sourceforge.net/DTD/sodipodi-0.dtd"
   xmlns:inkscape="http://www.inkscape.org/namespaces/inkscape"
   width="142.49702mm"
   height="65.011902mm"
   viewBox="0 0 142.49702 65.011902"
   version="1.1"
   id="svg8"
   inkscape:version="0.92.3 (2405546, 2018-03-11)"
   sodipodi:docname="drawing.svg">
  <defs
     id="defs2" />
  <sodipodi:namedview
     id="base"
     pagecolor="#ffffff"
     bordercolor="#666666"
     borderopacity="1.0"
     inkscape:pageopacity="0.0"
     inkscape:pageshadow="2"
     inkscape:zoom="0.7"
     inkscape:cx="116.36364"
     inkscape:cy="66.428549"
     inkscape:document-units="mm"
     inkscape:current-layer="layer1"
     showgrid="false"
     inkscape:window-width="1920"
     inkscape:window-height="986"
     inkscape:window-x="-11"
     inkscape:window-y="-11"
     inkscape:window-maximized="1" />
  <metadata
     id="metadata5">
    <rdf:RDF>
      <cc:Work
         rdf:about="">
        <dc:format>image/svg+xml</dc:format>
        <dc:type
           rdf:resource="http://purl.org/dc/dcmitype/StillImage" />
        <dc:title></dc:title>
      </cc:Work>
    </rdf:RDF>
  </metadata>
  <g
     inkscape:label="Layer 1"
     inkscape:groupmode="layer"
     id="layer1"
     transform="translate(-41.955357,-44.511909)">
    <path
       style="opacity:0.95999995;fill:#cccccc;fill-opacity:1;stroke:none;stroke-width:3;stroke-miterlimit:4;stroke-dasharray:none;stroke-opacity:1"
       d="M 41.955357,44.511909 H 184.45238 V 109.52381 H 41.955357 Z"
       id="rect815"
       inkscape:connector-curvature="0" />
    <g
       aria-label="Learn"
       style="font-style:normal;font-variant:normal;font-weight:normal;font-stretch:normal;font-size:50.79999924px;line-height:1.25;font-family:'Urdu Typesetting';-inkscape-font-specification:'Urdu Typesetting';font-variant-ligatures:normal;font-variant-caps:normal;font-variant-numeric:normal;font-feature-settings:normal;text-align:start;letter-spacing:0px;word-spacing:0px;writing-mode:lr-tb;text-anchor:start;fill:#000000;fill-opacity:1;stroke:none;stroke-width:0.26458332"
       id="text819">
      <path
         d="m 60.197432,56.570517 q 1.637109,0 3.199804,-0.07441 1.562696,-0.07441 2.926954,-0.07441 v 1.289844 l -2.182813,0.148828 q -0.496094,0.04961 -0.79375,0.173633 -0.272851,0.124023 -0.42168,0.396875 -0.148828,0.272852 -0.223242,0.744141 -0.04961,0.471289 -0.124023,1.215429 -0.02481,0.124024 -0.07441,0.84336 -0.02481,0.719336 -0.04961,1.736328 -0.0248,1.016992 -0.04961,2.207617 -0.02481,1.16582 -0.02481,2.232422 v 18.330663 h 6.846094 q 1.785937,0 2.976562,-0.148828 1.21543,-0.148828 1.860352,-0.421679 0.545703,-0.248047 0.942578,-0.694532 0.396875,-0.446484 0.669727,-0.992187 0.272851,-0.570508 0.446484,-1.190625 0.173633,-0.644922 0.272852,-1.289844 l 0.198437,-1.339453 1.736328,0.09922 q -0.02481,0.347266 -0.07441,0.942578 -0.02481,0.570508 -0.07441,1.314648 -0.02481,0.719336 -0.07441,1.513086 -0.04961,0.79375 -0.09922,1.537891 -0.04961,0.744141 -0.07441,1.438672 -0.02481,0.669726 -0.07441,1.091406 l -0.496094,0.272852 q -1.041797,-0.198438 -3.100586,-0.248047 -2.033984,-0.02481 -5.382617,-0.02481 h -7.788671 q -0.744141,0 -1.711524,0.02481 -0.942578,0.0248 -1.885156,0.04961 -0.942578,0.02481 -1.835547,0.04961 -0.868164,0.02481 -1.463476,0.02481 v -1.289844 l 2.083593,-0.148828 q 0.471289,-0.0248 0.768946,-0.148828 0.32246,-0.124023 0.496093,-0.396875 0.198438,-0.297656 0.272852,-0.768945 0.09922,-0.496094 0.124023,-1.21543 0.04961,-1.066601 0.07441,-3.274218 0.04961,-2.207618 0.04961,-5.655469 v -7.441406 q 0,-1.066602 -0.02481,-2.257227 -0.0248,-1.190625 -0.07441,-2.207617 -0.02481,-1.016992 -0.07441,-1.736328 -0.02481,-0.719336 -0.04961,-0.868164 -0.04961,-0.744141 -0.173633,-1.21543 -0.124024,-0.496094 -0.322461,-0.768945 -0.198438,-0.272852 -0.471289,-0.396875 -0.272852,-0.124024 -0.644922,-0.148828 l -2.133203,-0.09922 v -1.289844 l 2.406054,0.07441 q 0.992188,0.04961 2.00918,0.07441 1.041797,0 1.686719,0 z"
         style="stroke-width:0.26458332"
         id="path821"
         inkscape:connector-curvature="0" />
      <path
         d="m 97.057197,76.191025 q -0.595313,0 -1.339454,0 -0.74414,-0.02481 -1.5875,-0.02481 -0.818554,-0.0248 -1.686718,-0.04961 -0.84336,-0.02481 -1.661914,-0.04961 l -3.919141,-0.07442 -0.04961,0.545704 q -0.02481,0.248046 -0.02481,0.520898 0,0.272852 0,0.520898 0,1.364258 0.347266,2.778125 0.347265,1.389063 1.141015,2.530078 0.79375,1.141016 2.108399,1.860352 1.339453,0.719336 3.274218,0.719336 1.488282,0 2.728516,-0.471289 1.265039,-0.496094 2.182812,-1.041797 l 1.637104,-0.942578 0.86817,1.265039 -1.835547,1.21543 q -0.719336,0.496093 -1.637109,0.992187 -0.892969,0.496094 -1.934766,0.917774 -1.041797,0.396875 -2.207617,0.644921 -1.16582,0.272852 -2.406055,0.272852 -1.5875,0 -3.175,-0.620117 -1.5875,-0.620117 -2.852539,-1.860352 -1.265039,-1.265039 -2.058789,-3.12539 -0.79375,-1.885157 -0.79375,-4.415235 0,-2.629296 0.992188,-4.71289 0.992187,-2.083594 2.678906,-3.522266 1.686719,-1.438672 3.869531,-2.182812 2.207617,-0.768946 4.638477,-0.768946 1.438672,0 2.703711,0.545704 1.289843,0.545703 2.257226,1.53789 0.967383,0.992188 1.537883,2.406055 0.57051,1.413867 0.57051,3.150195 z M 92.542743,69.07208 q -0.74414,0 -1.612304,0.37207 -0.84336,0.37207 -1.612305,1.091406 -0.768945,0.694532 -1.364258,1.711524 -0.595312,0.992187 -0.843359,2.257226 h 9.376172 q -0.04961,-1.265039 -0.42168,-2.282031 -0.347266,-1.016992 -0.917773,-1.711523 -0.545703,-0.694532 -1.240235,-1.066602 -0.669726,-0.37207 -1.364258,-0.37207 z"
         style="stroke-width:0.26458332"
         id="path823"
         inkscape:connector-curvature="0" />
      <path
         d="m 121.58903,88.07247 q -0.94257,0 -1.6123,-0.248047 -0.66973,-0.248047 -1.11621,-0.644922 -0.42168,-0.421679 -0.66973,-0.942578 -0.24805,-0.520898 -0.34726,-1.066601 -0.64493,0.570507 -1.38907,1.141015 -0.71933,0.545703 -1.5875,0.992188 -0.86816,0.446484 -1.88515,0.719336 -0.99219,0.297656 -2.15801,0.297656 -2.6541,0 -3.99356,-1.413867 -1.33945,-1.438672 -1.33945,-3.745508 0,-1.364258 0.47129,-2.331641 0.49609,-0.967382 1.31465,-1.661914 0.84336,-0.694531 1.95957,-1.141015 1.11621,-0.471289 2.35644,-0.818555 0.76895,-0.223242 1.61231,-0.42168 0.86816,-0.198437 1.66191,-0.37207 0.79375,-0.198437 1.46348,-0.37207 0.66973,-0.173633 1.09141,-0.322461 v -1.736328 q 0,-0.992188 -0.19844,-1.785938 -0.17363,-0.818554 -0.69453,-1.389062 -0.4961,-0.595313 -1.38907,-0.892969 -0.86816,-0.322461 -2.23242,-0.322461 -1.11621,0 -2.43086,0.347266 -1.28984,0.347265 -2.43086,0.719336 l -0.42168,-0.148828 -0.34726,-1.289844 q 0.86816,-0.347266 1.90996,-0.719336 1.0418,-0.37207 2.05879,-0.669727 1.0418,-0.322461 2.00918,-0.520898 0.96738,-0.198438 1.68672,-0.198438 0.94258,0 2.1084,0.198438 1.16582,0.198437 2.158,0.892969 1.017,0.669726 1.68672,1.984375 0.69453,1.289843 0.69453,3.522265 v 8.210352 q 0,1.041797 0.19844,1.810742 0.19844,0.74414 0.5209,1.240234 0.32246,0.471289 0.71934,0.719336 0.39687,0.223242 0.79375,0.223242 0.86816,0 2.03398,-0.694531 l 0.66973,1.240234 q -0.27286,0.173633 -0.74414,0.446485 -0.47129,0.272851 -1.11622,0.545703 -0.62011,0.248047 -1.41386,0.42168 -0.76895,0.198437 -1.66192,0.198437 z m -3.99355,-4.7625 q -0.0496,-0.595312 -0.0992,-1.413867 -0.0248,-0.843359 -0.0496,-1.711523 0,-0.868164 -0.0248,-1.63711 0,-0.768945 0,-1.215429 -0.84336,0.347265 -1.93477,0.595312 -1.09141,0.223242 -2.05879,0.520898 -0.96738,0.322461 -1.63711,0.719336 -0.64492,0.372071 -1.0666,0.868164 -0.39687,0.496094 -0.59531,1.116211 -0.17364,0.620118 -0.17364,1.438672 0,1.63711 0.71934,2.43086 0.71934,0.768945 1.83555,0.768945 0.62011,0 1.26504,-0.198438 0.66972,-0.198437 1.31465,-0.520898 0.64492,-0.347266 1.28984,-0.79375 0.64492,-0.471289 1.21543,-0.967383 z"
         style="stroke-width:0.26458332"
         id="path825"
         inkscape:connector-curvature="0" />
      <path
         d="m 135.52926,70.65958 q 0.71934,-0.620117 1.48829,-1.240235 0.79375,-0.644921 1.56269,-1.141015 0.76895,-0.520899 1.48828,-0.84336 0.71934,-0.322461 1.33946,-0.322461 1.11621,0 2.08359,0.297657 0.99219,0.297656 1.68672,0.694531 v 0.347266 q -0.17363,0.322461 -0.39688,0.79375 -0.19843,0.471289 -0.42168,1.016992 -0.22324,0.520898 -0.44648,1.091406 -0.19844,0.545703 -0.37207,1.016992 h -0.74414 q -0.62012,-0.818555 -1.43867,-1.438672 -0.81856,-0.644922 -1.78594,-0.644922 -0.44649,0 -0.96738,0.248047 -0.5209,0.223242 -1.06661,0.570508 -0.52089,0.347266 -1.01699,0.768945 -0.49609,0.396875 -0.89297,0.744141 v 6.275586 q 0,0.42168 0,1.116211 0,0.669726 0,1.413867 0.0248,0.719336 0.0496,1.364258 0.0248,0.644922 0.0496,0.992187 0.0248,0.84336 0.14883,1.339453 0.12402,0.496094 0.37207,0.768946 0.24805,0.248046 0.62012,0.347265 0.37207,0.07441 0.91777,0.09922 l 1.95957,0.124023 v 1.289844 l -2.55488,-0.07441 q -1.0666,-0.02481 -2.18281,-0.04961 -1.11621,-0.02481 -1.88516,-0.02481 -0.24805,0 -0.84336,0.02481 -0.59531,0.0248 -1.28984,0.04961 -0.66973,0.02481 -1.28985,0.04961 -0.62011,0.02481 -0.89297,0.02481 v -1.289844 l 1.16582,-0.198437 q 0.32247,-0.02481 0.57051,-0.148828 0.27285,-0.124024 0.42168,-0.396875 0.17364,-0.272852 0.27285,-0.744141 0.0992,-0.471289 0.12403,-1.190625 0,-0.347265 0,-1.141015 0.0248,-0.818555 0.0496,-1.736328 0.0248,-0.942579 0.0248,-1.810743 0.0248,-0.892968 0.0248,-1.413867 v -2.554883 q 0,-1.810742 -0.0744,-2.852539 -0.0496,-1.041796 -0.29765,-1.5875 -0.24805,-0.570507 -0.71934,-0.79375 -0.47129,-0.248046 -1.28984,-0.471289 l 0.14882,-1.016992 q 0.62012,-0.07441 1.43868,-0.248047 0.81855,-0.198437 1.6123,-0.421679 0.79375,-0.223243 1.46348,-0.42168 0.66972,-0.223242 1.01699,-0.347266 l 0.81855,0.347266 z"
         style="stroke-width:0.26458332"
         id="path827"
         inkscape:connector-curvature="0" />
      <path
         d="m 158.17595,86.460165 v 1.289844 q -1.41387,0 -2.70372,-0.07441 -1.28984,-0.07441 -2.85253,-0.07441 -0.24805,0 -0.84336,0.02481 -0.59532,0.0248 -1.28985,0.04961 -0.66972,0.02481 -1.31465,0.04961 -0.62011,0.02481 -0.91777,0.02481 v -1.289844 l 0.96738,-0.09922 q 0.42168,-0.04961 0.71934,-0.148828 0.29766,-0.124024 0.47129,-0.396875 0.19844,-0.297657 0.27285,-0.768946 0.0992,-0.471289 0.12402,-1.265039 0,-0.347265 0,-1.141015 0.0248,-0.818555 0.0496,-1.736328 0.0248,-0.942579 0.0248,-1.810743 0.0248,-0.892968 0.0248,-1.413867 v -2.554883 q 0,-1.810742 -0.0992,-2.827734 -0.0992,-1.041797 -0.34726,-1.562695 -0.24805,-0.545703 -0.64492,-0.744141 -0.37207,-0.223242 -0.91778,-0.396875 -0.0744,-0.02481 -0.24804,-0.04961 -0.14883,-0.04961 -0.29766,-0.07441 l -0.39688,-0.04961 0.14883,-1.016992 q 0.62012,-0.07441 1.53789,-0.248047 0.91778,-0.173632 1.81075,-0.396875 0.91777,-0.223242 1.68671,-0.421679 0.76895,-0.223243 1.11622,-0.372071 l 0.81855,0.347266 v 2.232422 l 0.91777,-0.42168 q 1.71153,-0.79375 3.49746,-1.389062 1.78594,-0.620118 3.49747,-0.620118 0.96738,0 2.1332,0.297657 1.16582,0.272851 2.15801,1.041797 1.01699,0.74414 1.68671,2.108398 0.69454,1.339453 0.69454,3.472656 v 3.869531 q 0,0.719336 0,1.612305 0.0248,0.892969 0.0496,1.761133 0.0248,0.843359 0.0248,1.562695 0.0248,0.694531 0.0248,1.041797 0.0248,0.768945 0.0744,1.240234 0.0496,0.471289 0.24805,0.744141 0.19843,0.272851 0.59531,0.396875 0.42168,0.09922 1.16582,0.148828 l 0.84336,0.04961 v 1.289844 q -1.31465,0 -2.50528,-0.07441 -1.16582,-0.07441 -2.60449,-0.07441 -1.71152,0 -2.97656,0.07441 -1.26504,0.07441 -2.20762,0.07441 v -1.289844 q 0.84336,-0.04961 1.38907,-0.124023 0.5457,-0.09922 0.86816,-0.347266 0.32246,-0.272851 0.47129,-0.768945 0.14883,-0.520898 0.19844,-1.438672 0.0248,-0.347265 0.0496,-0.992187 0.0248,-0.644922 0.0248,-1.364258 0.0248,-0.744141 0.0248,-1.413867 0.0248,-0.694531 0.0248,-1.116211 v -4.861719 q 0,-1.116211 -0.37207,-1.909961 -0.37207,-0.79375 -1.0666,-1.289843 -0.69453,-0.496094 -1.68672,-0.719336 -0.99219,-0.223243 -2.23242,-0.223243 -0.71934,0 -1.48828,0.173633 -0.76895,0.148828 -1.46348,0.372071 -0.69453,0.198437 -1.24024,0.421679 -0.52089,0.198438 -0.76894,0.297656 v 7.739063 q 0,0.42168 0,1.116211 0,0.669726 0,1.413867 0.0248,0.719336 0.0496,1.364258 0.0248,0.644922 0.0496,0.992187 0.0496,0.818555 0.14883,1.314649 0.12402,0.471289 0.34726,0.74414 0.24805,0.272852 0.59531,0.372071 0.37207,0.09922 0.94258,0.148828 z"
         style="stroke-width:0.26458332"
         id="path829"
         inkscape:connector-curvature="0" />
    </g>
  </g>
</svg>
