<svg id="Layer_1" data-name="Layer 1" xmlns="http://www.w3.org/2000/svg" viewBox="0 0 279.72 94.84"><defs><style>.cls-1{fill:#662d91;}.cls-2{fill:#fff;}.cls-3{fill:#231f20;}</style></defs><title>LEARNBOARD PURPULE</title><rect class="cls-1" width="94.84" height="94.84" rx="40" ry="40"/><path class="cls-2" d="M115.68,220.75h30.94v7H107v-65.3h8.66Z" transform="translate(-75.12 -149.72)"/><path class="cls-3" d="M181.06,211V170.92h13.11q6.53,0,9.81,2.7t3.29,8a8.17,8.17,0,0,1-1.59,5,10.39,10.39,0,0,1-4.36,3.34,9.32,9.32,0,0,1,5.14,3.46,9.9,9.9,0,0,1,1.89,6.07,10.73,10.73,0,0,1-3.5,8.48Q201.36,211,195,211Zm5.29-23h8a8.38,8.38,0,0,0,5.55-1.74,5.8,5.8,0,0,0,2.08-4.71q0-3.31-1.93-4.82c-1.28-1-3.24-1.5-5.86-1.5h-7.82Zm0,4.24v14.43h8.72a8.44,8.44,0,0,0,5.83-1.91A6.75,6.75,0,0,0,203,199.5q0-7.23-7.87-7.24Z" transform="translate(-75.12 -149.72)"/><path class="cls-3" d="M247,192.26a24.86,24.86,0,0,1-2,10.29,15,15,0,0,1-5.62,6.7,15.49,15.49,0,0,1-22.56-6.65,23.82,23.82,0,0,1-2.08-10v-2.89a24.53,24.53,0,0,1,2-10.22,14.9,14.9,0,0,1,14.1-9.14,15.54,15.54,0,0,1,8.49,2.33,15,15,0,0,1,5.66,6.75,24.91,24.91,0,0,1,2,10.28Zm-5.26-2.59q0-7.12-2.86-10.94a9.45,9.45,0,0,0-8-3.81,9.35,9.35,0,0,0-7.89,3.81q-2.88,3.81-3,10.59v2.94q0,6.92,2.9,10.86a10.17,10.17,0,0,0,15.93.22q2.81-3.72,2.89-10.69Z" transform="translate(-75.12 -149.72)"/><path class="cls-3" d="M276.49,200.52H259.7L255.92,211h-5.45l15.31-40.09h4.63L285.74,211h-5.42Zm-15.2-4.32h13.63l-6.83-18.75Z" transform="translate(-75.12 -149.72)"/><path class="cls-3" d="M305.84,194.8h-9.42V211h-5.31V170.92h13.27q6.78,0,10.42,3.09c2.43,2.05,3.65,5.05,3.65,9a10.78,10.78,0,0,1-2,6.53,12.15,12.15,0,0,1-5.63,4.16l9.41,17V211h-5.67Zm-9.42-4.33h8.13a9.16,9.16,0,0,0,6.26-2,6.9,6.9,0,0,0,2.33-5.46,7.26,7.26,0,0,0-2.22-5.71q-2.22-2-6.4-2h-8.1Z" transform="translate(-75.12 -149.72)"/><path class="cls-3" d="M325.86,211V170.92h11.31a18.23,18.23,0,0,1,9.25,2.32,15.61,15.61,0,0,1,6.21,6.58,21.41,21.41,0,0,1,2.22,9.8v2.56a21.5,21.5,0,0,1-2.19,9.94,15.39,15.39,0,0,1-6.25,6.55A19.24,19.24,0,0,1,337,211Zm5.28-35.76v31.44h5.57q6.1,0,9.51-3.8t3.4-10.83v-2.35q0-6.83-3.21-10.62t-9.1-3.84Z" transform="translate(-75.12 -149.72)"/></svg>