<svg id="Layer_1" data-name="Layer 1" xmlns="http://www.w3.org/2000/svg" viewBox="0 0 181.84 64.2"><defs><style>.cls-1{fill:#39bced;}.cls-2{fill:#fff;}.cls-3{fill:#100f24;}</style></defs><title>Learningboard icon2</title><path class="cls-1" d="M32.6.5H40A32.1,32.1,0,0,1,72.1,32.6h0A32.1,32.1,0,0,1,40,64.7H32.6A32.1,32.1,0,0,1,.5,32.6h0A32.1,32.1,0,0,1,32.6.5Z" transform="translate(-0.5 -0.5)"/><path class="cls-2" d="M55.82,49.18h-31V13.54H37.6v27H55.82Z" transform="translate(-0.5 -0.5)"/><path class="cls-3" d="M95.6,28.38a4.5,4.5,0,0,1-1,2.9A4.81,4.81,0,0,1,92,32.89a15.44,15.44,0,0,1-3.71.39H75.46V16.64h14a10.53,10.53,0,0,1,2.85.33,3.07,3.07,0,0,1,1.86,1.41,4,4,0,0,1,.57,2.15A3.68,3.68,0,0,1,94,22.84a4.4,4.4,0,0,1-2.47,1.44,5.64,5.64,0,0,1,2.8,1A3.75,3.75,0,0,1,95.6,28.38Zm-6-.45c0-.91-.5-1.36-1.51-1.36H81.4v2.9h6.27a3.29,3.29,0,0,0,.83-.08A1.32,1.32,0,0,0,89.6,27.93ZM89,21.66a1.4,1.4,0,0,0-.18-.7,1.5,1.5,0,0,0-1.42-.59H81.42V23h6.22a2.51,2.51,0,0,0,.61-.17,1,1,0,0,0,.55-.46,1.48,1.48,0,0,0,.19-.65Z" transform="translate(-0.5 -0.5)"/><path class="cls-3" d="M119,24.93a8.08,8.08,0,0,1-3.68,7.12,9.08,9.08,0,0,1-2.71,1.27,17.15,17.15,0,0,1-4.78.57,13.64,13.64,0,0,1-7-1.58,7.87,7.87,0,0,1-2.1-1.8A8.9,8.9,0,0,1,100.3,18l.13-.1A12.67,12.67,0,0,1,107.6,16a19,19,0,0,1,2.24.07q5.28.42,7.61,3.75A8.75,8.75,0,0,1,119,24.93Zm-6.13,0a6,6,0,0,0-.46-2.47,4.27,4.27,0,0,0-1-1.54,4.11,4.11,0,0,0-1.6-.94,6.27,6.27,0,0,0-3.91.11A4.24,4.24,0,0,0,103.72,22a6.36,6.36,0,0,0-.39,5,4.84,4.84,0,0,0,1,1.73,3.58,3.58,0,0,0,1.37,1,7.3,7.3,0,0,0,1.29.37,6.16,6.16,0,0,0,3.29-.3,4,4,0,0,0,2-1.93A6.65,6.65,0,0,0,112.82,24.93Z" transform="translate(-0.5 -0.5)"/><path class="cls-3" d="M140.85,33.28h-6.48l-.9-2.71h-6.36l-.9,2.71h-6.55l7.19-16.64h6.75Zm-8.63-6.35-2-5.63-1.86,5.63Z" transform="translate(-0.5 -0.5)"/><path class="cls-3" d="M161.36,33.28h-6.58l-3.44-6.06h-3.16v6.06h-6V16.64h12.26a11.76,11.76,0,0,1,3.44.42,4.27,4.27,0,0,1,2.29,1.87,5.59,5.59,0,0,1,.85,3,4.38,4.38,0,0,1-2.27,4.15,6.12,6.12,0,0,1-1.55.56Zm-6.27-11.35a1.45,1.45,0,0,0-.26-.85,1.94,1.94,0,0,0-1.7-.68h-4.95v3.06h4.48a2.71,2.71,0,0,0,2.1-.59A1.4,1.4,0,0,0,155.09,21.93Z" transform="translate(-0.5 -0.5)"/><path class="cls-3" d="M182.33,25.15a8.11,8.11,0,0,1-1.76,5.44,6.35,6.35,0,0,1-1.87,1.51,9.28,9.28,0,0,1-2.1.83,12.72,12.72,0,0,1-3.13.33H162.89V16.64h9.45a19.29,19.29,0,0,1,2,.07c3,.25,5.17,1.38,6.55,3.39A8.55,8.55,0,0,1,182.33,25.15ZM176.51,25A4.18,4.18,0,0,0,175,21.49a5.59,5.59,0,0,0-3.42-.89h-2.85v8.91h3a6.73,6.73,0,0,0,1-.07,3.78,3.78,0,0,0,3.18-2A5.41,5.41,0,0,0,176.51,25Z" transform="translate(-0.5 -0.5)"/></svg>